<svg width="1075" height="2939" viewBox="0 0 1075 2939" fill="none" xmlns="http://www.w3.org/2000/svg">
<path fill-rule="evenodd" clip-rule="evenodd" d="M1050.92 1471.63C1077.26 1472.22 1065.96 1226 1048.38 1180.62C1045.91 1171.43 1043.88 1158.86 1044.29 1147.58C1066.04 1149.76 1063.7 1134.84 1062.58 1116.85C1062.95 1102.57 1063.94 1073.1 1042.12 1084.57C976.714 953.36 1047.43 614.182 875.221 582.236C854.47 577.185 833.022 571.96 815.551 557.543C797.064 523.3 787.648 518.926 757.015 516.711C751.342 485.867 740.739 452.915 709.142 440.913C680.213 429.554 646.545 428.648 616.379 434.71C591.412 442.87 589.128 489.372 583.582 512.3C549.955 503.365 508.513 484.572 490.41 527.173C481.641 524.547 473.516 526.252 464.606 529.174C389.927 541.232 317.472 575.084 289.774 645.718C272.664 688.105 284.807 734.245 291.223 778.144C297.207 825.945 281.427 870.231 274.112 916.209C263.221 979.524 261.251 1030.31 268.359 1077.37C249.572 1081.65 248.186 1098.77 255.787 1116.69C258.019 1122.75 260.267 1129.14 265.203 1132.57C275.242 1138.91 288.219 1131.61 299.129 1130.49C301.399 1155.77 305.794 1180.58 313.065 1208.78C310.959 1217.22 308.544 1226.64 306.375 1235.12L305.643 1234.32C280.733 1338.87 206.647 1440.43 229.673 1551.55C231.027 1555.25 233.596 1554.48 235.569 1554.41C246.999 1558.77 257.499 1556 269.025 1556.45C296.366 1556.47 322.78 1559.98 347.284 1563.03C351.764 1592.35 366.326 1640.35 392.297 1651.53C392.734 1651.68 400.432 1650.07 401.075 1650.03C331.939 1930.93 207.545 2190.67 158.132 2477.23C157.84 2480.73 163.518 2478.88 165.381 2479.3C165.126 2487.26 170.254 2489.17 177.433 2492C168.181 2511.38 159.847 2530.73 150.637 2550.16C146.366 2559.78 139.406 2569.28 138.137 2579.57C127.941 2586.09 121.073 2598.86 121.255 2610.77C93.7591 2622.42 101.233 2679.94 94.9594 2708.42C88.6162 2750.87 58.445 2780.5 37.7577 2815.3C33.5417 2822.29 29.0524 2831.44 28.8532 2840.21C16.0286 2846.24 11.2465 2859.4 12.0952 2881.55C12.0494 2907.46 19.345 2917.33 39.017 2917.96C92.45 2923.31 154.802 2921.13 208.545 2915.05C248.749 2909.92 284.375 2914.17 275.386 2865.77C273.536 2854.05 277.089 2838.27 270.168 2828.79C265.9 2800.55 268.383 2772.1 277.585 2744.21C283.18 2720.72 292.631 2672.21 288.715 2640.7C286.903 2626.12 257.207 2618.1 251.98 2617.39C253.643 2606.42 252.911 2587.24 247.019 2579.62C257.838 2578.1 260.558 2575.24 262.811 2563.2C268.196 2543.7 268.912 2522.52 282.247 2506.09C306.231 2506.4 330.134 2500.3 354.104 2499.56L355.297 2496.8C369.475 2496.62 383.573 2494.11 397.03 2489.19C400.014 2490.61 403.832 2491.82 405.509 2487.29L413.514 2462.21C506.698 2165.06 609.988 1867.2 710.701 1572.23C716.58 1557.89 723.65 1542.65 732.844 1529.87C735.958 1710.35 773.689 1890.64 776.93 2071.03C781.308 2195.13 780.181 2317.92 791.831 2442.46C794.829 2468.82 798.016 2467.94 801.943 2466.32C803.516 2466.57 807.219 2467.36 808.826 2467.7C806.199 2493.89 803.177 2536.41 791.968 2563.2C767.191 2567.03 771.628 2586.08 777.124 2601.87C771.212 2606.93 772.053 2618.72 773.807 2625.25C750.495 2625.27 745.412 2644.27 747.016 2656.26C749.233 2676.32 747.992 2707.52 761.345 2724.65C769.209 2746.48 782.009 2767.09 787.009 2790.62C790.152 2807.93 788.938 2833.15 791.968 2850.32C784.344 2853.85 787.574 2859.38 786.289 2870.08C779.689 2919.08 802.919 2910.75 843.993 2914.13C868.612 2919.57 1056.03 2930.41 1047.94 2897.81C1049.32 2884.54 1043.16 2878.71 1040.52 2865.64C1039.33 2862.17 1015.98 2822.03 1002.05 2806.83C955.342 2762.85 957.382 2703.81 958.862 2635.8C956.115 2617.36 941.964 2599.71 923.907 2601.7C929.091 2582.01 919.482 2564.89 899.4 2559.2C901.406 2536.91 903.518 2506.62 910.862 2487.34L903.945 2480.29L913.203 2481.39L916.277 2473.64L919.629 2482.14C935.523 2482.14 953.456 2478.6 968.681 2476.94C971.114 2477.08 970.028 2473.77 970.427 2472.49C984.805 2469.51 986.38 2461.85 983.839 2443.61C987.188 2147.45 985.734 1854.06 981.156 1557.34C1003.63 1558.34 1025.54 1550.13 1047.62 1544.66C1055.46 1549.59 1057.69 1532.02 1056.77 1528.23C1055.52 1508.6 1053.1 1489.45 1050.92 1471.63Z" fill="white"/>
<path fill-rule="evenodd" clip-rule="evenodd" d="M589.466 471C592.806 473.642 592.457 480.966 592.786 485.066L592.809 485.335C593.86 497.719 592.437 510.161 589.424 522.185L588.959 524.018C587.519 529.765 586.089 536.653 581.583 540.595C576.466 545.072 568.337 542.174 568.152 534.955C568.059 531.6 569.177 528.369 570.591 525.222C560.677 529.055 550.763 532.846 540.807 536.544C534.448 589.237 607.913 653.749 650.447 676.334C712.388 710.688 764.505 658.068 772.434 596.209C773.766 587.992 774.659 579.547 774.833 571.217L774.843 570.418C774.878 563.53 773.738 554.321 778.217 548.593C774.92 548.515 771.991 548.98 768.764 549.487L768.919 549.755C770.748 553.031 773.333 561.186 767.542 561.806C755.04 560.488 749.225 538.527 746.177 527.994L746.057 527.537C744.089 519.644 741.583 490.993 747.51 487.558C749.333 494.626 748.616 502.303 750.832 509.392C755.877 511.428 765.482 511.978 767.707 512.353C793.688 512.654 808.419 531.341 818.949 553.216C849.82 578.602 894.194 574.24 927.528 595.147C1029.53 669.233 996.22 957.649 1047.03 1080.35C1057.2 1076.13 1067.57 1084.58 1068.93 1094.88C1070.33 1102.81 1069.91 1111.29 1070.02 1119.32L1070.07 1120.32C1070.9 1136.75 1073.74 1155.2 1051.6 1155.56C1051.64 1164.73 1053.36 1173.61 1055.57 1182.46C1067.83 1236.02 1073.18 1291.2 1074.38 1346.12L1074.44 1350.15C1074.84 1379.02 1075.19 1468.31 1058.63 1478.88L1059.41 1485.17C1061.32 1500.9 1063.13 1516.67 1064.14 1532.48C1065.73 1540.68 1060.32 1560.35 1049.28 1555.14C1029.04 1560.16 1009.09 1567.56 988.055 1567.59C993.151 1737.44 990.617 1907.46 991.371 2077.38C989.747 2202.63 996.505 2328.92 990.598 2453.69L990.811 2455.45C992.481 2469.46 992.982 2481.64 976.819 2486.44C976.587 2489.87 973.954 2491.7 970.832 2492.1C961.973 2493.3 953.114 2494.43 944.246 2495.52C935.984 2496.14 927.145 2498.2 918.912 2497.21C919.707 2498.02 917.546 2498.14 917.312 2497.56C909.805 2516.43 907.627 2537 905.768 2557.14C923.989 2564.1 933.933 2579.75 930.959 2599.37C949.343 2600.12 962.769 2620.59 965.346 2637.84C966.996 2649.74 965.674 2661.56 965.142 2673.49C962.597 2714.24 968.575 2758.14 994.832 2790.64C1011.88 2811.05 1034.06 2829.5 1041.5 2856.07C1043.52 2857.02 1045.18 2858.85 1045.91 2861.7L1050.63 2880.25L1052.97 2889.53C1054.69 2896.29 1056.22 2903.21 1055.3 2910.21L1055.2 2910.89C1050.61 2955.23 869.166 2933.86 833.754 2930.67C819.519 2928.44 803.9 2929.66 791.083 2922.1C775.361 2911.71 773.395 2890.62 776.094 2873.35L776.318 2871.73C777.411 2864 779.011 2855.91 786.326 2851.59C783.863 2835.58 784.816 2819.21 781.887 2803.26C777.463 2780.71 764.081 2761.13 757.249 2739.48C747.284 2728.37 746.948 2711.07 744.864 2696.87C743.285 2683.09 741.994 2669.23 741.461 2655.37C740.015 2637.05 747.949 2621.95 767.174 2619.56C766.282 2616.08 768.724 2613.08 771.153 2610.86C765.421 2590.47 763.839 2562.47 788.704 2555.51C798.122 2532.11 800.86 2506.75 803.366 2481.8C803.068 2481.74 802.772 2481.68 802.473 2481.63C791.08 2486.39 787.988 2466.04 786.921 2455.3L786.684 2452.74C774.96 2328.54 776.039 2203.62 771.636 2079.04L771.205 2070.04C767.345 1987.96 765.048 1905.15 750.88 1824.17C736.621 1733.91 732.894 1642.17 728.02 1550.96C722.28 1559.9 719.193 1570.16 714.547 1579.69C654.266 1757.13 592.416 1934.04 532.821 2111.73C489.627 2240.38 448.36 2369.71 406.97 2498.96C404.858 2505.58 398.204 2506.95 393.334 2504.83C380.938 2509.14 367.929 2511.58 354.836 2512.01C354.048 2513.82 352.428 2515.15 350.058 2514.89C343.056 2514.12 334.998 2516.32 327.996 2517.14C311.973 2518.72 296.418 2521.18 280.249 2521.42C270.232 2534.11 269.602 2551.31 264.984 2566.41C262.325 2574.11 262.742 2591.38 253.561 2593.55C256.852 2598.62 257.283 2604.72 256.75 2611.01C259.605 2611.66 262.501 2612.89 265.188 2614.14C267.804 2615.47 271.26 2615.36 273.063 2618.03C324.343 2627.34 286.868 2724.91 277.954 2757.18C269.206 2783.56 266.466 2811.11 270.458 2838.65C276.561 2847.1 274.517 2859.66 275.451 2869.67C275.943 2878.6 276.845 2887.67 276.764 2896.61C275.767 2933.77 229.991 2927.72 204.164 2932.54C188.038 2934.42 171.838 2935.73 155.639 2936.75C114.555 2939.31 73.2401 2939.5 32.2401 2935.52C5.76798 2934.68 0.0757483 2917.38 0.117784 2893.72L0.0773709 2892.74C-0.519129 2876.67 2.06583 2857.28 17.2908 2848.93C18.0495 2840.44 22.3464 2831.87 26.7335 2824.45C47.134 2790.09 77.7635 2759.97 83.7879 2718.73C89.6975 2691.73 83.0026 2632.3 110.394 2618.23C111.03 2606.07 118.483 2593.68 127.711 2587.11C129.492 2576.98 136.201 2567.67 140.352 2558.36C148.819 2540.6 156.651 2522.55 165.072 2504.77C160.663 2502.9 155.977 2499.46 155.362 2494.58C151.129 2494.63 146.946 2491.89 147.458 2486.72C148.954 2471.74 152.226 2457 155.316 2442.27L155.702 2440.43C210.69 2174.1 324.243 1925.05 390.679 1662.13C381.74 1663.75 373.383 1653.51 368.441 1646.84C352.478 1625.3 343.05 1599.25 338.904 1572.81L331.4 1571.88C306.377 1568.8 281.23 1566.1 255.997 1566.83L249.916 1567.03C243.16 1567.24 236.392 1567.18 229.97 1564.75C225.49 1565.16 220.825 1562.75 219.717 1557.72C201.029 1464.39 246.966 1375.83 279.869 1291.5C287.62 1270.77 293.137 1249.73 298.397 1228.26C298.57 1227.57 299.657 1227.71 299.627 1228.43C298.602 1252.3 292.695 1276.37 286.697 1299.37C267 1377.39 225.966 1453.89 235.999 1536.48C267.184 1511.88 304.222 1494.78 343.128 1487.55C345.373 1477.78 347.854 1468.07 349.72 1458.24C347.885 1443.11 346.634 1427.92 345.035 1412.72C340.257 1367.27 332.958 1321.93 323.228 1277.27C308.135 1232.34 294.957 1186.8 290.245 1139.42L289.387 1139.59C278.922 1141.72 267.393 1146.34 257.684 1139.66C251.522 1135.38 248.855 1128.29 246.366 1121.47C239.254 1104.95 237.938 1083.24 258.062 1076.33C250.56 1023.8 255.434 968.97 264.502 916.936C271.762 871.327 287.689 826.392 281.727 779.7C275.108 734.832 262.766 687.839 280.608 643.918C309.93 570.62 384.183 535.843 457.208 524.651L458.391 524.302C467.425 521.623 475.651 518.798 485.064 520.828C507.266 479.548 543.273 496.338 578.434 505.538C580.809 498.538 582.787 491.377 584.647 484.222C585.806 480.578 585.423 472.168 589.466 471ZM792.98 2871.61L792.888 2873.41C791.958 2892.74 793.006 2909.3 816.92 2909.17C833.376 2910.93 849.835 2912.65 866.317 2914.14L872.499 2914.69C921.419 2919.06 970.926 2921.2 1019.75 2914.63L1021.79 2914.36C1025.87 2913.77 1033.42 2913.89 1036.65 2910.87C1040.55 2905.62 1036.04 2895.6 1035.09 2889.51C958.909 2888.62 882.625 2885.81 806.39 2886.78C798.372 2886.82 794.753 2879.95 795.491 2873.7C794.589 2873.09 793.738 2872.38 792.98 2871.61ZM19.4757 2861.92C15.7294 2875.12 16.6521 2887.59 18.7682 2900.81C19.8263 2914.65 26.3972 2915.54 38.2881 2915.86C84.7086 2920.15 131.464 2919.25 177.897 2915.66C202.784 2912.97 228.358 2913.07 252.782 2907.55C264.434 2902.38 257.707 2886.11 258.104 2876.13C203.253 2911.55 120.298 2907.05 60.4849 2886.56L59.5265 2886.15C45.3777 2880.19 27.2909 2876.44 19.4757 2861.92ZM110.333 2623.61C104.027 2630.73 103.896 2651.03 103.631 2657.94L103.598 2658.72C102.89 2673.23 103.002 2687.77 102.375 2702.28C102.837 2763.39 67.6207 2793.86 41.4674 2843C34.3142 2854.92 44.7206 2856.61 53.1851 2860.48C107.996 2886.04 172.83 2889.94 230.092 2870.38C258.875 2861.99 252.591 2842.59 250.147 2818.85C247.741 2770.33 273.216 2726.62 280.752 2679.7L280.955 2678.48C283.202 2664.7 287.084 2629.39 265.177 2636.94C260.411 2639.88 255.93 2636.2 255.367 2631.69C254.799 2631.78 254.216 2631.83 253.655 2631.84C251.121 2647.53 248.496 2663.19 245.975 2678.88C248.097 2680.23 250.086 2681.75 251.849 2683.5C253.992 2685.63 252.495 2690.1 249.265 2689.82C247.606 2689.68 245.965 2689.43 244.334 2689.12C243.041 2702.75 221.431 2695.1 227.673 2684.17C196.602 2673.42 162.371 2674.27 130.818 2682.52L130.687 2682.58C128.244 2683.55 110.68 2687.08 116.331 2689.82C118.686 2690.11 113.324 2693.2 112.383 2688.42C112.08 2682.43 125.732 2679.48 129.915 2677C119.365 2661.87 112.157 2642.26 110.333 2623.61ZM906.342 2575.7C877.072 2559.82 841.101 2565.71 809.354 2568.52L808.021 2568.67C799.941 2569.55 788.68 2570.08 784.971 2578.42C779.601 2591.78 788.502 2621.67 791.298 2636.53L792.25 2640.43C794.569 2649.94 796.769 2659.37 797.563 2669.21C797.583 2669.52 797.286 2669.74 797.009 2669.74C785.888 2657.83 780.89 2641.82 775.695 2626.55C773.479 2627.81 771.316 2629.18 769.277 2630.69C761.306 2658.14 758.637 2687.36 764.948 2715.36L765.175 2716.34C772.971 2750.94 797.244 2779.24 799.551 2815.4C801.093 2830.01 800.748 2844.99 804.944 2859.19C807.331 2859.72 809.412 2861.48 810.347 2863.7L824.031 2863.71C890.169 2863.83 956.326 2864.43 1022.42 2867.16C1020.29 2848.53 1003.89 2832.01 992.331 2819.24C956.877 2782.85 941.542 2730.59 947.383 2680.22C950.456 2655.02 964.49 2615.42 930.16 2606.11C927.652 2626.65 924.263 2647.12 922.388 2667.74C928.867 2670.87 928.467 2679.13 920.552 2678.97C917 2690.95 905.087 2686.11 906.374 2674.8C862.803 2658.68 837.805 2653.27 795.357 2677.57C794.169 2677.39 798.619 2672.62 799.182 2671.77C812.597 2657.28 833.198 2650.46 852.526 2650.22C871.686 2650.22 889.705 2657.45 907.779 2663.05C910.495 2643.59 912.324 2624.01 914.478 2604.49L914.945 2600.31C916.073 2590.06 915.662 2581.59 906.342 2575.7ZM206.133 2826.96C212.51 2825.53 218.376 2823.37 224.854 2824.84C247.656 2842 154.488 2846.84 146.555 2845.62C126.361 2845.03 106.158 2842.46 86.7227 2836.74L85.368 2836.34C83.4538 2835.8 64.0816 2830.4 67.7551 2827.98C94.0417 2830.32 119.777 2835.16 146.555 2833.9C159.914 2833.62 173.325 2832.67 186.54 2830.66C193.112 2829.65 199.653 2828.42 206.133 2826.96ZM822.107 2805.69C817.934 2799.43 838.284 2807.75 840.931 2807.82C857.784 2811.99 874.934 2815.15 892.245 2816.46C903.851 2817.34 915.58 2817.53 927.206 2816.95C935.817 2816.66 944.333 2815.38 952.888 2814.5L953.196 2814.49C958.28 2814.31 968.466 2817.47 962.188 2823.53C952.426 2831.12 937.982 2828.81 926.283 2829.92C890.753 2829.8 853.131 2824.07 822.107 2805.69ZM154.143 2760.13C164.386 2758.27 220.766 2757.66 215.145 2775C213.781 2778.29 210.665 2779.38 207.384 2778.87C172.491 2770.36 134.852 2765.91 100.07 2777.64C99.5064 2777.84 99.1168 2776.91 99.6704 2776.66C116.772 2768.08 135.07 2762.07 154.143 2760.13ZM885.95 2743.17C895.155 2742.47 904.415 2742.72 913.624 2743.41L917.395 2743.71C921.279 2744.02 925.249 2744.43 928.96 2745.56L929.698 2745.79C934.755 2747.43 946.152 2756.13 937.501 2760.32C928.212 2763.34 920.357 2759.75 911.396 2757.45C886.419 2751.51 860.162 2753.52 835.416 2759.59L838.901 2760.71C839.116 2760.55 839.394 2760.92 839.188 2761.09C836.687 2763.28 833.251 2762.5 831.479 2759.78C831.17 2759.32 831.366 2758.57 831.857 2758.31C848.63 2749.49 867.126 2744.61 885.95 2743.17ZM107.996 2740.96C136.205 2728.45 168.888 2727.07 199.14 2730.69L201.295 2730.96C210.733 2732.07 223.043 2732.58 228.443 2741.39C230.309 2744.44 228.381 2747.94 225.367 2749.04C216.489 2752.29 206.051 2745.78 197.522 2743.36C172.299 2736.44 145.362 2735.71 119.714 2740.49C119.894 2741.45 115.646 2741.03 114.721 2741.37C113.562 2741.3 105.868 2743.85 107.996 2740.96ZM819.36 2721.42C843.969 2709.43 872.423 2706.57 898.991 2712.76L900.096 2713.08C911.868 2716.39 930.822 2720.3 935.039 2732.79C935.952 2735.6 933.973 2739.4 931.01 2739.97C920.972 2741.9 911.858 2734.55 902.775 2731.02C876.049 2720.95 845.796 2718.55 818.16 2725.95C817.976 2727.04 817.791 2728.12 817.595 2729.21C818.068 2728.9 818.56 2729.6 818.181 2729.98C813.771 2733.08 809.182 2725.26 819.36 2721.42ZM171.408 2700.34C191.32 2699.01 211.399 2701.55 230.622 2706.81L234.237 2707.81C239.491 2709.29 246.297 2711.61 247.061 2717.3C247.359 2719.56 246.795 2721.12 244.959 2722.53C238.268 2727.54 223.713 2717.03 215.392 2715.79C185.185 2706.7 152.76 2706.83 122.161 2713.79L121.119 2714.03L121.857 2719.29C122.582 2721.81 115.857 2715.88 118.412 2713.17C134.565 2704.93 153.413 2701.82 171.408 2700.34ZM838.132 2690.93C854.114 2688.04 870.599 2687.49 886.757 2688.94L888.666 2689.12C898.315 2689.97 929.578 2691.22 922.183 2707.57C920.943 2710.3 917.344 2710.65 915.016 2709.47C907.203 2705.5 898.663 2704.07 890.041 2702.76C859.597 2698.51 828.493 2700.25 798.772 2708.47C799.418 2709.49 798.085 2710.69 796.824 2710.93C793.687 2711.51 793.687 2707.76 795.03 2705.77C796.63 2703.41 799.818 2702.55 802.279 2701.51C813.725 2696.51 825.862 2693.13 838.132 2690.93ZM232.851 2599.96L231.031 2599.53C200.534 2592.34 132.919 2579.44 125.917 2621.55C123.432 2640.09 131.63 2658.18 131.024 2676.55C162.648 2663.66 197.618 2663.79 230.473 2672.31C233.384 2653.25 236.163 2634.17 239.136 2615.12L239.617 2612.84C240.94 2606.42 241.389 2601.39 232.851 2599.96ZM164.928 2607.63C171.573 2601.92 182.656 2602 189.175 2608.23C195.137 2609.49 199.341 2615.83 199.438 2621.27C208.502 2637.24 197.572 2659.3 180.267 2663.29C141.19 2671.54 123.722 2617.74 164.928 2607.63ZM841.945 2582.15C874.641 2576.3 886.518 2617.87 859.683 2634.73C821.776 2653.79 796.518 2593.87 841.945 2582.15ZM181.106 2489.81C181.588 2492.99 180.028 2495.25 178.164 2497.39C171.461 2524.93 161.372 2550.56 151.425 2576.97C183.785 2571.59 214.36 2576.28 242.992 2585.09C243.334 2577.03 246.998 2568.68 249.542 2561.09C254.497 2546.66 260.487 2532.61 267.396 2519.04L268.264 2517.34C270.746 2512.51 273.134 2507.47 276.066 2502.84C244.394 2498.51 212.723 2494.6 181.106 2489.81ZM818.96 2483.94L818.116 2487.77C814.481 2504.4 811.031 2521.18 805.621 2537.33L805.547 2537.66C804.719 2541.74 802.856 2560.61 801.684 2547.29C800.782 2549.3 799.818 2551.28 798.793 2553.23L806.635 2552.3C835.884 2548.85 866.399 2546.11 895.085 2553.47C892.109 2530.36 896.49 2508.27 902.887 2486.41C874.849 2485.77 847.059 2485.97 818.96 2483.94ZM287.989 2512.67C286.964 2513.64 285.96 2514.62 285.006 2515.65C286.299 2515.32 287.591 2515 288.789 2514.72C288.74 2513.96 288.205 2513.39 287.989 2512.67ZM919.835 2491.47L918.922 2493.62C919.395 2493.34 919.918 2493.07 920.48 2492.83C920.224 2492.41 920.009 2491.97 919.835 2491.47ZM163.781 2486.75C163.449 2487.99 163.196 2489.34 162.6 2490.46C163.072 2490.55 163.554 2490.64 164.037 2490.74C164.62 2489.56 165.236 2488.41 165.902 2487.27C165.194 2487.11 164.487 2486.94 163.781 2486.75ZM407.657 1123.56C404.787 1124.95 401.793 1125.3 397.836 1125.47C365.681 1126.81 333.63 1130.54 302.056 1136.91C303.799 1162.51 311.57 1187.32 318.965 1211.73L320.499 1217.08C345.487 1304.54 367.298 1395.94 362.905 1487.42C363.151 1487.51 363.387 1487.63 363.613 1487.75C363.213 1488.87 362.928 1490.02 362.526 1491.13L362.269 1491.79L360.769 1495.52C359.94 1497.6 359.134 1499.68 358.435 1501.81C357.208 1502.26 355.699 1502.58 354.262 1502.79C346.967 1551.22 353.903 1605.53 386.774 1643.4C375.056 1619.76 370.968 1592.9 371.484 1566.63L371.577 1562.61C371.711 1557.65 372.007 1552.7 373.516 1547.99C373.578 1547.74 373.906 1547.79 373.989 1547.99C380.948 1569.54 381.402 1592.94 388.239 1614.65L388.762 1616.31C394.17 1633.32 403.2 1655.22 418.884 1664.01C421.772 1664.87 426.213 1663.85 427.714 1667.19L427.814 1667.43L427.906 1667.4C420.905 1644.41 416.397 1620.63 414.853 1596.63L414.752 1595C414.26 1586.62 413.174 1577.65 415.255 1569.47C419.223 1576.95 418.237 1589.16 420.083 1598.21L420.157 1598.72C421.615 1608.5 435.655 1683.22 444.875 1673.23C446.78 1670.48 446.285 1665.16 446.343 1661.88L446.351 1661.56C446.495 1656.82 446.443 1652.08 446.28 1647.35C445.284 1619.45 440.958 1590.81 449.437 1563.63C450.852 1559.05 458.542 1558.18 459.475 1563.63C463.207 1585.4 466.774 1607.19 470.341 1628.98C472.943 1642.29 472.834 1657.31 480.738 1668.79C480.83 1643.72 479.444 1618.73 478.245 1593.7L477.924 1592.66C476.977 1589.5 476.043 1585.39 478.215 1582.71C479.087 1577 487.413 1577.65 488.119 1583.63C488.274 1584.88 488.386 1586.15 488.509 1587.4C491.268 1590.87 493.831 1594.41 497.09 1597.4C518.86 1552.83 447.634 1475.87 437.801 1425.55C408.84 1327.55 425.491 1224.8 433.914 1125C425.204 1123.97 416.421 1123.69 407.657 1123.56ZM822.128 559.542C837.353 590.184 848.528 622.613 856.269 655.987C858.654 666.291 844.871 672.615 839.303 663.588L839.137 663.309C832.289 651.854 822.085 641.765 809.168 637.82C800.368 674.816 804.656 713.913 809.229 751.27C817.336 803.315 823.788 855.583 824.754 908.324L824.8 911.15C827.626 1091.26 854.023 1270.56 882.936 1446.91C929.156 1454.35 971.471 1475.35 1014.08 1493.81C1021.48 1496.71 1029.04 1499.24 1036.8 1500.98C1015.39 1301.05 933.98 1113.56 908.824 914.36C902.175 862.553 901.863 809.944 911.048 758.437C911.203 757.45 912.596 757.783 912.658 758.655C913.667 779.813 917.274 800.694 919.414 821.737C920.87 809.719 924.233 797.545 926.95 786.026C930.272 774.756 931.499 756.664 941.233 749.317L941.847 747.188C942.103 746.274 943.456 746.658 943.242 747.572C943.14 748.008 943.036 748.434 942.944 748.87C949.196 750.537 943.356 757.973 941.806 761.532C931.772 788.532 928.786 817.758 921.936 845.586C931.848 932.461 949.698 1018.23 971.683 1102.67C991.881 1097.33 1012.15 1092.18 1032.4 1086.96C987.229 939.281 1013.64 774.476 945.967 633.469C920.613 586.148 858.173 592.576 822.128 559.542ZM478.955 532.545C469.481 532.036 459.587 537.199 450.493 538.975C438.436 541.322 426.44 543.182 414.65 546.787C354.298 563.4 296.072 608.768 285.139 674.134C277.624 719.017 296.232 762.748 295.578 807.506C293.615 851.85 279.053 894.469 273.379 938.365C266.554 983.253 264.204 1030.24 270.059 1075.34C324.197 1059.92 380.737 1058.95 436.253 1066.92C431.623 998.552 437.698 929.849 441.06 861.531C443.48 817.655 447.622 773.582 446.157 729.623C446.125 728.646 447.704 728.407 447.856 729.384C464.505 819.166 454.74 910.308 453.057 1000.86C451.989 1023.73 454.81 1046.83 453.672 1069.58C478.911 1075.03 477.998 1104.59 470.28 1124.07C468.912 1128.76 464.269 1127.94 460.51 1127.37C456.437 1131.67 446.721 1126.06 441.183 1126.06C436.848 1238.45 410.515 1358.5 464.477 1463.55C487.038 1463.67 508.755 1455.86 530.681 1451.42L531.877 1451.18L531.908 1451.17C535.132 1446.96 536.707 1440.19 537.138 1435.23C540.202 1348.68 530.612 1261.92 536.222 1175.36C543.095 1079.28 564.439 983.785 554.567 887.052C547.74 800.598 529.003 715.71 519.971 629.514L519.513 625.054C518.951 619.74 518.738 613.868 516.12 609.816C500.883 623.758 488.098 640.336 478.943 658.988C473.876 667.998 460.299 663.989 460.09 653.816C458.138 635.654 457.849 617.422 459.827 599.255L460.007 597.652C462.458 574.912 469.301 553.206 478.955 532.545ZM1045.4 1156.31C1025.77 1157.35 1006.13 1159.54 986.467 1159.28L988.446 1166.74C1012.24 1256.22 1037.58 1345.54 1052.52 1437.1L1053.07 1428.51C1053.61 1419.93 1054.12 1411.34 1054.46 1402.73C1058.7 1320.45 1052.23 1238.27 1045.4 1156.31ZM534.543 585.229C534.625 588.948 534.81 592.656 535.098 596.354C544.167 610.017 543.361 628.179 545.391 643.897C556.774 728.78 573.536 813.315 579.183 899.081C584.437 967.691 575.857 1036.06 567.087 1103.98C556.271 1181.77 557.405 1260.36 559.918 1338.67C601.476 1300.89 660.543 1294.26 712.979 1282.53L715.473 1282.02C755.791 1273.72 796.025 1261.7 830.279 1238.09C805.645 1061.11 811.442 881.857 786.254 705.036C785.478 691.112 785.319 677.109 786.469 663.196C785.363 648.134 785.033 632.989 785.004 617.887C773.966 662.501 736.982 705.604 688.525 704.196C636.967 701.156 593.205 658.747 559.59 622.395C550.477 611.551 541.413 598.889 534.543 585.229ZM987.983 1156.39L985.656 1156.28L985.799 1156.79C986.278 1156.69 986.766 1156.6 987.253 1156.52L987.983 1156.39ZM1051.94 1095.96C1051.57 1095.85 1050.94 1095.85 1050.25 1095.88C1049.24 1098.2 1047.21 1100.13 1044.86 1100.76L1025.18 1106.1C1008.79 1110.55 992.383 1114.97 975.958 1119.28C978.715 1129.96 981.515 1140.64 984.344 1151.3C1006.75 1144.04 1031.55 1145.69 1054.39 1141.01C1054.11 1128.68 1053.44 1116.3 1053.23 1103.95C1053.18 1101.93 1053.59 1098.69 1052.56 1096.89C1051.92 1095.73 1052.56 1096.16 1051.94 1095.96ZM299.422 1137.45L298.806 1137.58C299.011 1138.14 299.196 1138.7 299.371 1139.28C299.381 1138.66 299.39 1138.06 299.422 1137.45ZM445.265 1078.14C403.059 1071.95 360.136 1068.3 317.568 1072.51C298.314 1075.13 278.768 1077.93 259.898 1081.51C253.336 1091.66 260.596 1116.35 268.766 1124.16C271.216 1125.1 275.43 1123.28 277.778 1122.75C295.395 1118.74 313.183 1115.52 331.061 1113C331.594 1113.67 332.373 1114.11 333.336 1114.01L337.444 1113.63C362.101 1111.37 386.977 1109.71 411.688 1111.13L411.871 1111.27C428.543 1112.5 445.157 1115.14 461.76 1117.06C468.315 1099.79 467.185 1079.99 445.265 1078.14ZM752.36 515.115C753.99 520.679 755.95 526.085 758.387 531.34C760.932 530.631 764.442 531.2 766.313 532.815L767.108 532.67C769.297 532.252 771.925 531.611 772.609 531.537C802.765 527.333 800.467 567.98 800.577 588.408C800.761 598.65 800.966 608.902 801.274 619.144C809.904 616.182 821.444 621.506 828.987 626.217C823.081 606.409 816.14 586.922 808.399 567.779L806.934 564.049C800.835 548.604 794.084 532.965 781.128 522.21C771.277 519.614 761.734 519.142 752.36 515.115ZM533.714 504.917C505.684 494.844 494.581 517.735 486.807 540.564C477.641 565.847 475.14 593.685 476.667 620.889L477.611 619.631C487.923 605.779 502.793 582.915 521.595 586.59C521.41 576.08 521.787 564.535 523.788 553.621C522.62 546.578 522.322 539.463 523.133 532.348C523.562 523.426 533.207 524.78 539.557 523.519C545.052 519.831 551.706 518.346 558.391 520.942C563.435 520.267 568.479 519.623 573.523 518.979C574.297 517.265 574.923 515.543 575.574 513.786C561.614 510.878 547.657 507.882 533.714 504.917Z" fill="black"/>
<g clip-path="url(#clip0_1_22)">
<path fill-rule="evenodd" clip-rule="evenodd" d="M861.405 128.845C861.069 116.887 843.676 111.922 838.651 123.765C838.339 124.082 838 124.387 837.682 124.66C839.255 123.311 835.966 125.543 835.431 125.819C834.973 126.055 834.505 126.268 834.038 126.488C830.806 96.1937 819.834 63.5357 791.482 48.3297C751.938 29.1537 706.245 25.4107 662.862 27.3157C640.885 28.6197 615.507 32.1337 595.982 21.0157C589.898 17.5517 585.021 12.0987 578.146 9.95772C556.443 4.08672 546.599 26.3727 549.555 44.6997C540.298 44.7727 531.115 49.8977 527.12 58.3357C524.774 63.3297 524.815 68.7187 522.792 73.7307C516.585 86.4407 507.704 95.5767 512.725 110.987C503.894 121.036 508.929 136.249 516.055 145.87C519.574 150.874 523.765 155.678 526.343 161.279C528.845 166.642 525.068 173.002 522.966 178.086C507.426 214.935 508.314 255.516 516.676 293.952C499.896 301.233 494.86 323.993 505.802 338.324C509.567 343.39 514.16 345.27 519.369 348.387C525.961 352.015 520.577 366.547 522.688 373.565C525.556 390.698 541.156 401.249 556.581 390.123C566.369 388.642 574.264 417.121 581.372 424.269C585.751 430.029 590.613 435.201 595.899 439.974C611.649 480.499 692.355 501.049 732.257 498.703C774.042 494.328 802.231 458.842 825.703 427.348C837.756 410.567 845.595 391.785 848.446 371.3C851.31 350.712 850.057 330.087 848.121 309.474C844.054 265.678 837.638 202.582 833.495 158.313C848.467 157.08 861.859 144.333 861.405 128.845Z" fill="white"/>
<path fill-rule="evenodd" clip-rule="evenodd" d="M535.018 102.513C535.004 102.575 535.025 102.622 535.039 102.688C535.042 102.669 535.045 102.659 535.05 102.636C535.038 102.586 535.029 102.553 535.018 102.513Z" fill="#4F66AF"/>
<path fill-rule="evenodd" clip-rule="evenodd" d="M535.014 103.15C534.959 103.092 534.881 103.049 534.803 102.991C534.801 102.993 534.8 102.995 534.799 102.997C534.872 103.045 534.942 103.1 535.014 103.15Z" fill="#4F66AF"/>
<path fill-rule="evenodd" clip-rule="evenodd" d="M859.024 134.504C863.942 130.418 871.689 134.18 870.023 140.907C868.21 148.233 860.358 153.239 853.876 156.249C847.204 159.346 840.705 159.943 833.426 159.605L833.336 159.585C835.357 167.688 836.503 176.111 838.049 184.263C840.011 194.605 841.941 204.952 843.842 215.304C845.681 225.31 848.006 235.329 849.419 245.385C850.844 255.536 852.212 265.694 853.612 275.848C855.948 292.807 857.834 309.844 859.823 326.851L860.771 334.902C862.762 351.941 864.365 369.002 860.591 385.959C857.054 401.851 849.086 416.675 839.844 429.941C830.793 442.931 820.682 455.421 809.583 466.72C788.174 488.511 761.774 505.964 730.818 509.201C717.489 510.595 703.253 509.044 690.722 504.199L689.89 503.874C677.205 498.865 661.671 490.29 658.37 476.219C656.343 467.587 665.238 460.848 673.037 464.944C676.65 466.842 679.367 469.011 682.334 471.73L682.86 472.216C685.284 474.467 686.217 475.159 689.014 476.92C694.751 480.529 699.051 482.237 705.567 483.877C717.581 486.899 730.547 486.421 742.743 482.847C768.637 475.259 788.725 455.459 805.934 435.606C815.278 424.825 824.147 413.516 830.987 400.951C838.164 387.768 841.477 373.927 841.278 358.927C841.053 342.002 838.714 325.011 837.179 308.166C835.615 290.993 834.169 273.826 832.895 256.629C831.702 240.502 831.586 224.302 831.169 208.125L831.087 205.092C830.842 196.504 830.672 187.913 830.477 179.323C830.284 170.758 829.606 162.084 830.488 153.555C830.551 152.934 831.388 152.777 831.592 153.405C832.112 155.003 832.567 156.626 832.997 158.258C833.063 158.208 833.137 158.163 833.227 158.132C838.931 156.172 844.184 152.259 848.464 148.039C852.548 144.012 854.681 138.113 859.024 134.504ZM546.947 14.5061C550.53 -0.209871 566.654 -3.49687 578.577 3.59013C584.312 6.99813 588.904 11.9131 594.261 15.8191C599.587 19.7031 605.473 22.8221 611.684 25.0251C624.023 29.4011 637.039 30.9921 650.08 31.0491C681.82 31.1881 712.911 22.2681 744.698 23.2631C769.294 24.0331 795.4 31.3021 813.241 49.0821C822.852 58.6601 829.045 70.9741 832.367 84.0471C833.92 90.157 835.077 96.4151 835.99 102.659L836.213 104.219C836.724 107.868 837.544 111.731 837.62 115.419C837.689 118.731 836.851 122.197 836.397 125.475C835.44 132.385 824.737 131.598 823.199 125.475C819.697 111.534 821.163 97.1461 816.883 83.2531C813.088 70.9331 805.733 60.1611 795.076 52.7941C750.117 21.7141 692.462 47.7411 642.926 45.3231C630.819 44.7321 618.534 42.8611 607.114 38.6921C601.225 36.5421 595.427 33.9201 590.088 30.6221C585.196 27.6024 580.958 23.8084 576.43 20.3171L574.432 18.7987C571.328 16.4632 566.043 12.8116 562.911 15.9011C561.548 17.246 561.466 20.2867 561.491 22.6087L561.506 23.6581C561.648 33.5161 563.657 43.3561 559.968 52.8801C558.285 57.2242 553.608 59.9632 549.16 57.503L548.93 57.3711C539.521 51.7737 527.159 63.0212 534.387 72.3297L534.612 72.6111C538.679 77.5533 536.511 86.2564 529.232 86.2346L528.97 86.2301C516.002 85.8252 510.249 102.032 521.426 109.113L521.77 109.325C530.845 114.756 522.885 127.813 513.584 123.33C514.372 123.71 513.002 123.705 512.218 124.757C511.465 125.767 511.409 126.641 511.588 127.917C512.131 131.783 515.531 135.041 518.285 137.487C524.541 143.044 532.296 146.881 540.287 149.217C572.297 158.575 605.137 147.128 636.325 140.215C668.84 133.008 705.564 130.105 733.92 150.556C734.257 150.798 733.962 151.339 733.589 151.123C713.239 139.305 688.315 140.354 666.07 145.199C636.9 151.553 607.985 163.38 578.11 166.496C586.497 181.302 590.007 198.789 587.767 215.724C586.225 227.382 581.585 237.494 576.106 247.741L575.06 249.694C570.174 258.892 566.39 267.581 566.329 278.237C566.27 288.824 550.531 291.056 547.863 280.737C541.806 257.302 563.872 238.843 572.875 219.518C580.57 202.998 580.807 183.737 574.58 166.822C567.554 167.387 560.473 167.446 553.321 166.808C547.178 166.259 540.858 165.152 534.698 163.4L532.234 173.76C528.969 187.559 525.944 201.349 525.027 215.682C524.352 226.214 524.388 236.798 525.415 247.304C526.303 256.378 528.177 265.129 530.084 273.988C531.72 276.146 532.556 279.449 532.096 282.08C542.716 285.138 551.069 293.518 554.121 304.617C554.307 305.293 553.361 305.673 553.007 305.087C545.766 293.073 527.12 288.652 515.325 296.589C504.061 304.167 499.618 319.467 505.994 331.579C509.348 337.948 514.32 342.423 520.732 345.505L522.021 346.11C525.381 347.7 528.465 349.433 530.626 352.626C533.429 356.768 533.524 361.147 533.259 365.88L533.144 367.798C532.967 370.97 532.927 374.236 533.872 377.288L534.087 377.966C534.336 378.728 534.598 379.399 535.053 380.126C535.189 380.342 536.465 381.594 536.881 382.047L537.405 382.205L537.991 382.229C538.641 382.239 539.496 381.957 539.215 382.153L539.292 382.109C539.538 381.955 539.765 381.793 539.956 381.649L540.319 381.365C541.168 380.138 542.232 379.124 543.537 378.351L544.784 377.796C548.023 374.376 553.573 376.173 555.895 379.58C557.566 382.03 558.465 384.521 558.539 386.978C558.8 386.559 559.38 386.33 559.749 386.799L561.951 389.605C570.374 400.367 578.653 411.197 588.224 421.008C593.497 426.414 599.169 431.494 605.098 436.173C610.16 440.168 619.762 444.012 619.909 451.289C619.955 453.651 618.278 455.324 616.226 456.126C609.548 458.735 601.295 449.861 596.471 445.543L596.077 445.194C590.173 440.023 584.785 434.347 579.813 428.277C570.156 416.486 562.081 402.915 558.522 387.986C558.355 390.591 557.237 393.144 555.061 395.553C552.164 398.759 548.199 401.007 543.964 401.933C534.369 404.03 525.001 400.577 519.292 392.582C514.467 385.823 513.046 376.898 513.669 368.732L513.745 367.752C513.833 366.443 513.944 364.04 514.283 363.017L511.262 361.358C507.558 359.387 504.125 356.803 501.044 353.963C488.661 342.547 482.448 323.994 488.109 307.759C491.65 297.603 499.091 288.766 508.619 284.173C507.027 280.493 506.494 276.122 505.893 272.255L505.792 271.615C504.773 265.271 503.92 258.847 503.595 252.427C502.987 240.437 503.726 228.335 505.61 216.484C508.67 197.235 515.005 176.821 526.617 160.673C517.758 157.155 509.604 152.062 503.31 144.99C496.733 137.6 492.54 127.02 497.626 117.635C498.922 115.243 500.611 113.232 502.552 111.635C499.186 105.279 498.097 97.7671 500.174 90.5871C502.656 82.0031 509.395 75.3081 517.536 72.1821C515.559 64.0491 517.175 55.3011 523.216 48.5231C529.208 41.7991 538.513 39.3501 547.125 40.8871C547.592 32.2371 544.869 23.0371 546.947 14.5061ZM522.792 318.206C530.688 314.342 540.046 314.956 547.933 318.618L548.468 318.872C557.079 323.047 568.483 332.803 565.746 343.179C564.144 349.247 557.402 351.319 552.174 348.7C547.807 346.511 546.811 342.598 544.62 338.667C543.071 335.887 541.156 333.714 538.907 331.479C534.166 326.77 528.841 323.272 522.792 320.473C521.92 320.069 521.95 318.619 522.792 318.206ZM721.747 108.477C721.007 108.139 721.544 106.98 722.289 107.192C742.13 112.858 760.629 125.576 771.683 143.229C772.357 144.306 772.46 146.079 771.683 147.145L771.325 147.628C770.818 148.29 770.318 148.779 769.365 148.927C767.573 149.205 766.016 148.738 764.984 147.145C754.094 130.319 740.142 116.891 721.747 108.477ZM854.572 111.808C856.253 108.961 860.71 109.534 861.597 112.726L861.725 113.004C862.204 114.092 861.987 114.315 861.093 113.699C863.305 115.521 864.306 118.235 863.63 121.153C859.978 136.913 842.127 148.167 826.565 146.618C825.207 146.483 825.022 144.814 826.253 144.316C832.24 141.892 837.554 137.955 841.827 133.124C845.98 128.428 847.727 123.055 849.961 117.384C850.799 115.255 852.103 113.722 853.94 112.885C854.183 112.549 854.395 112.191 854.572 111.808ZM766.075 101.681L766.182 101.687C774.178 102.72 781.095 106.666 786.71 112.448C792.118 118.016 798.943 127.204 798.358 135.375C797.971 140.792 790.269 143.889 787.395 138.345C785.68 135.037 785.291 131.411 784.09 127.913C782.988 124.707 781.466 121.663 779.644 118.808C775.893 112.926 770.735 107.943 765.453 103.447C764.835 102.921 765.266 101.683 766.075 101.681ZM560.99 99.28C559.217 97.592 561.061 94.714 563.316 95.284C575.209 98.295 586.987 101.957 599.352 102.321C605.528 102.502 611.669 102.015 617.787 101.216L620.884 100.805C625.655 100.182 630.508 99.6931 635.224 100.673C638.368 101.326 638.982 105.376 637.023 107.489C627.772 117.468 609.928 116.514 597.659 114.832C584.336 113.004 570.893 108.714 560.99 99.28ZM775.755 68.1757C774.941 67.0467 776.311 65.2647 777.607 65.7657C789.426 70.3337 801.813 82.2267 805.069 94.6697C805.929 97.9567 801.784 100.439 799.35 97.9987C794.814 93.4517 791.612 88.0807 787.778 82.9697C783.957 77.8747 779.486 73.3497 775.755 68.1757ZM582.102 73.7327C581.154 72.7857 582.108 70.8997 583.47 71.3817C591.165 74.1067 598.918 76.4647 607.002 77.7017C615.282 78.9677 623.64 78.0057 631.963 78.5187C635.33 78.7257 637.623 83.9637 633.88 85.5937C617.248 92.8347 594.658 86.2687 582.102 73.7327ZM603.349 57.4911C602.027 56.5131 602.779 53.8291 604.578 54.5781C611.906 57.6291 619.317 58.3791 627.181 58.0651C630.086 57.9481 630.697 62.5131 627.866 63.1291C619.173 65.0201 610.453 62.7431 603.349 57.4911Z" fill="black"/>
<path fill-rule="evenodd" clip-rule="evenodd" d="M749.587 374.926C742.864 372.183 736.867 367.609 732.481 361.765C730.957 359.734 730.562 357.589 730.881 355.627C731.241 353.421 732.546 351.421 734.326 350.08C736.112 348.735 738.345 348.071 740.505 348.409C742.381 348.703 744.249 349.731 745.727 351.861L746.036 352.287C748.643 355.814 752.04 358.708 755.911 360.573C759.642 362.371 763.814 363.21 768.132 362.722C776.356 361.793 782.024 357.346 788.049 351.306C788.796 350.543 789.543 349.757 790.294 348.958C790.768 348.234 791.426 347.768 792.157 347.524C792.968 347.253 793.886 347.268 794.726 347.561C795.537 347.844 796.262 348.38 796.748 349.094C797.21 349.772 797.471 350.61 797.386 351.573C796.835 357.833 793.563 363.419 788.914 367.805C783.752 372.676 776.909 376.046 770.466 377.228C763.368 378.53 756.136 377.597 749.587 374.926ZM773.814 278.366C781.366 282.956 792.872 293.66 784.748 305.039C775.186 315.072 761.419 303.568 754.634 298.365C748.344 294.333 741.276 304.704 747.112 309.412C796.136 345.707 816.031 279.567 777.634 272.97C773.406 272.243 771.836 276.946 773.814 278.366ZM685.963 236.146C686.798 225.789 702.57 223.438 704.139 233.686C705.544 242.866 703.89 251.299 699.755 259.564C695.804 267.46 685.874 263.776 685.123 256.586C684.116 246.948 685.444 242.588 685.963 236.146ZM806.027 231.561C808.226 228.681 811.401 226.715 815.205 227.826C827.09 231.299 823.587 248.172 819.413 256.385C817.145 260.845 809.814 261.976 806.501 258.049C801.101 251.645 798.515 238.856 805.38 232.548C805.566 232.222 805.773 231.893 806.027 231.561ZM699.588 190.83L701.465 190.501C707.273 189.497 714.495 188.532 718.603 193.201C720.782 195.677 721.532 200.279 718.603 202.649C713.451 206.819 707.755 205.203 701.581 205.556C696.493 205.848 691.603 206.69 686.702 208.091C675.95 211.164 667.189 216.774 658.006 222.934C656.801 223.742 655.571 222.201 656.146 221.074C661.447 210.691 671.72 202.162 682.01 196.963C687.502 194.188 693.512 191.886 699.588 190.83ZM795.193 186.179L796.63 186.473C812.267 189.741 832.584 196.271 839.989 211.63C840.271 213.802 839.973 214.267 839.73 214.572L839.65 214.673C839.45 214.932 839.29 215.29 838.349 215.586C838.088 215.524 837.824 215.458 837.557 215.388C834.163 214.498 831.477 213.273 828.878 212.001L826.059 210.613C822.788 209.009 819.489 207.464 815.992 206.323C808.53 203.889 800.854 202.175 793.06 201.259C791.371 201.061 789.744 200.491 788.46 199.513C787.242 198.586 786.312 197.302 785.887 195.595C785.337 193.386 785.495 191.713 786.681 189.72C787.572 188.224 788.847 187.186 790.311 186.591C791.804 185.983 793.504 185.84 795.193 186.179Z" fill="black"/>
<path fill-rule="evenodd" clip-rule="evenodd" d="M860.312 283.458C848.171 296.003 827.903 299.603 811.75 292.875C770.274 275.546 790.575 221.496 822.562 206.981C826.558 205.985 831.895 203.622 836.762 203.086C837.202 202.87 838.16 203.495 839.321 202.904C874.592 206.842 882.624 261.594 860.312 283.458ZM726.534 286.669C712.917 304.73 687.601 310.302 666.917 301.906C626.055 285.814 640.548 237.885 668.505 219.095C727.562 196.904 751.949 253.368 726.534 286.669ZM637.954 246.651C637.916 246.633 637.878 246.624 637.839 246.606C638.055 246.511 638.271 246.416 638.486 246.319C638.416 246.502 638.34 246.683 638.272 246.866C638.166 246.793 638.073 246.708 637.954 246.651ZM888.424 227.128C885.09 227.135 880.274 227.683 877.514 229.996C870.708 207.043 845.586 185.8 823.738 201.29C806.533 206.823 793.766 219.094 786.51 235.408C773.427 227.626 752.855 230.949 741.51 241.24C734.08 216.689 715.794 208.092 694.029 206.823C670.273 202.932 646.595 226.003 639.207 244.511C633.064 243.812 623.885 241.857 618.106 245.648C580.599 235.812 515.024 230.389 507.399 235.854C501.965 237.939 498.983 250.765 506.573 251.457C513.187 250.518 505.801 242.059 512.468 241.136C547.991 238.934 582.476 246.088 617.623 249.09C620.761 253.311 630.9 254.723 636.309 253.027C627.79 284.423 646.18 305.783 673.735 312.181C716.402 321.982 753.523 283.814 742.366 244.114C755.291 237.684 770.158 237.96 784.238 241.347C760.71 327.937 900.167 324.052 878.386 232.963C892.881 240.173 896.029 228.583 888.424 227.128Z" fill="black"/>
</g>
<defs>
<clipPath id="clip0_1_22">
<rect width="473" height="567" fill="white" transform="translate(419)"/>
</clipPath>
</defs>
</svg>
