<svg width="1075" height="2939" viewBox="0 0 1075 2939" fill="none" xmlns="http://www.w3.org/2000/svg">
<path fill-rule="evenodd" clip-rule="evenodd" d="M23.6434 1471.63C-2.69301 1472.22 8.59996 1226 26.1863 1180.62C28.649 1171.43 30.6829 1158.86 30.2733 1147.58C8.52176 1149.76 10.8635 1134.84 11.9866 1116.85C11.6177 1102.57 10.6266 1073.1 32.4432 1084.57C97.8491 953.36 27.1296 614.182 199.342 582.236C220.093 577.185 241.541 571.96 259.012 557.543C277.499 523.3 286.915 518.926 317.548 516.711C323.221 485.867 333.824 452.915 365.421 440.913C394.35 429.554 428.018 428.648 458.183 434.71C483.151 442.87 485.435 489.372 490.981 512.3C524.608 503.365 566.05 484.572 584.153 527.173C592.922 524.547 601.047 526.252 609.957 529.174C684.635 541.232 757.091 575.084 784.789 645.718C801.899 688.105 789.756 734.245 783.34 778.144C777.356 825.945 793.136 870.231 800.451 916.209C811.342 979.524 813.312 1030.31 806.204 1077.37C824.991 1081.65 826.376 1098.77 818.776 1116.69C816.544 1122.75 814.296 1129.14 809.36 1132.57C799.32 1138.91 786.344 1131.61 775.434 1130.49C773.164 1155.77 768.769 1180.58 761.498 1208.78C763.604 1217.22 766.019 1226.64 768.188 1235.12L768.92 1234.32C793.83 1338.87 867.916 1440.43 844.89 1551.55C843.536 1555.25 840.967 1554.48 838.994 1554.41C827.564 1558.77 817.064 1556 805.538 1556.45C778.197 1556.47 751.782 1559.98 727.279 1563.03C722.799 1592.35 708.237 1640.35 682.266 1651.53C681.829 1651.68 674.131 1650.07 673.488 1650.03C742.624 1930.93 867.018 2190.67 916.431 2477.23C916.723 2480.73 911.045 2478.88 909.182 2479.3C909.437 2487.26 904.309 2489.17 897.13 2492C906.382 2511.38 914.716 2530.73 923.926 2550.16C928.197 2559.78 935.157 2569.28 936.426 2579.57C946.622 2586.09 953.49 2598.86 953.308 2610.77C980.804 2622.42 973.33 2679.94 979.604 2708.42C985.947 2750.87 1016.12 2780.5 1036.81 2815.3C1041.02 2822.29 1045.51 2831.44 1045.71 2840.21C1058.53 2846.24 1063.32 2859.4 1062.47 2881.55C1062.51 2907.46 1055.22 2917.33 1035.55 2917.96C982.113 2923.31 919.761 2921.13 866.018 2915.05C825.814 2909.92 790.188 2914.17 799.177 2865.77C801.027 2854.05 797.474 2838.27 804.395 2828.79C808.663 2800.55 806.18 2772.1 796.978 2744.21C791.383 2720.72 781.932 2672.21 785.848 2640.7C787.659 2626.12 817.356 2618.1 822.583 2617.39C820.92 2606.42 821.652 2587.24 827.544 2579.62C816.725 2578.1 814.005 2575.24 811.752 2563.2C806.367 2543.7 805.65 2522.52 792.316 2506.09C768.332 2506.4 744.429 2500.3 720.459 2499.56L719.265 2496.8C705.088 2496.62 690.99 2494.11 677.533 2489.19C674.549 2490.61 670.731 2491.82 669.054 2487.29L661.049 2462.21C567.865 2165.06 464.574 1867.2 363.862 1572.23C357.983 1557.89 350.913 1542.65 341.719 1529.87C338.605 1710.35 300.874 1890.64 297.633 2071.03C293.255 2195.13 294.382 2317.92 282.732 2442.46C279.734 2468.82 276.547 2467.94 272.62 2466.32C271.047 2466.57 267.344 2467.36 265.737 2467.7C268.364 2493.89 271.385 2536.41 282.595 2563.2C307.372 2567.03 302.935 2586.08 297.439 2601.87C303.351 2606.93 302.51 2618.72 300.756 2625.25C324.068 2625.27 329.151 2644.27 327.547 2656.26C325.33 2676.32 326.571 2707.52 313.218 2724.65C305.354 2746.48 292.554 2767.09 287.554 2790.62C284.411 2807.93 285.625 2833.15 282.595 2850.32C290.219 2853.85 286.988 2859.38 288.274 2870.08C294.874 2919.08 271.644 2910.75 230.57 2914.13C205.951 2919.57 18.528 2930.41 26.6275 2897.81C25.2462 2884.54 31.4076 2878.71 34.0461 2865.64C35.2312 2862.17 58.5814 2822.03 72.5089 2806.83C119.221 2762.85 117.181 2703.81 115.701 2635.8C118.448 2617.36 132.599 2599.71 150.656 2601.7C145.472 2582.01 155.081 2564.89 175.163 2559.2C173.157 2536.91 171.045 2506.62 163.701 2487.34L170.618 2480.29L161.359 2481.39L158.286 2473.64L154.934 2482.14C139.04 2482.14 121.107 2478.6 105.882 2476.94C103.449 2477.08 104.535 2473.77 104.135 2472.49C89.7578 2469.51 88.1834 2461.85 90.7243 2443.61C87.3753 2147.45 88.8288 1854.06 93.4066 1557.34C70.9365 1558.34 49.0254 1550.13 26.9435 1544.66C19.0981 1549.59 16.8754 1532.02 17.7932 1528.23C19.0382 1508.6 21.4622 1489.45 23.6434 1471.63Z" fill="white"/>
<path fill-rule="evenodd" clip-rule="evenodd" d="M485.097 471C481.757 473.642 482.106 480.966 481.776 485.066L481.753 485.335C480.703 497.719 482.126 510.161 485.138 522.185L485.604 524.018C487.044 529.765 488.474 536.653 492.98 540.595C498.097 545.072 506.226 542.174 506.411 534.955C506.504 531.6 505.386 528.369 503.972 525.222C513.886 529.055 523.8 532.846 533.755 536.544C540.115 589.237 466.65 653.749 424.116 676.334C362.175 710.688 310.058 658.068 302.128 596.209C300.797 587.992 299.904 579.547 299.729 571.217L299.719 570.418C299.685 563.53 300.825 554.321 296.346 548.593C299.643 548.515 302.571 548.98 305.799 549.487L305.644 549.755C303.815 553.031 301.23 561.186 307.021 561.806C319.523 560.488 325.338 538.527 328.386 527.994L328.506 527.537C330.474 519.644 332.979 490.993 327.052 487.558C325.23 494.626 325.947 502.303 323.731 509.392C318.686 511.428 309.081 511.978 306.856 512.353C280.875 512.654 266.144 531.341 255.614 553.216C224.743 578.602 180.369 574.24 147.035 595.147C45.0289 669.233 78.3425 957.649 27.5349 1080.35C17.3623 1076.13 6.99397 1084.58 5.6355 1094.88C4.2309 1102.81 4.65122 1111.29 4.53845 1119.32L4.49036 1120.32C3.65986 1136.75 0.82559 1155.2 22.9623 1155.56C22.9274 1164.73 21.205 1173.61 18.9945 1182.46C6.73654 1236.02 1.38678 1291.2 0.180054 1346.12L0.119263 1350.15C-0.279127 1379.02 -0.631742 1468.31 15.9291 1478.88L15.1577 1485.17C13.2402 1500.9 11.434 1516.67 10.4244 1532.48C8.83529 1540.68 14.2436 1560.35 25.2794 1555.14C45.518 1560.16 65.4777 1567.56 86.5078 1567.59C81.4122 1737.44 83.9456 1907.46 83.1921 2077.38C84.8161 2202.63 78.0576 2328.92 83.9651 2453.69L83.7514 2455.45C82.0818 2469.46 81.5813 2481.64 97.7436 2486.44C97.9763 2489.87 100.609 2491.7 103.731 2492.1C112.59 2493.3 121.448 2494.43 130.317 2495.52C138.578 2496.14 147.418 2498.2 155.651 2497.21C154.855 2498.02 157.017 2498.14 157.25 2497.56C164.757 2516.43 166.936 2537 168.795 2557.14C150.574 2564.1 140.63 2579.75 143.604 2599.37C125.219 2600.12 111.794 2620.59 109.217 2637.84C107.567 2649.74 108.889 2661.56 109.421 2673.49C111.966 2714.24 105.988 2758.14 79.7308 2790.64C62.6869 2811.05 40.4982 2829.5 33.061 2856.07C31.0413 2857.02 29.3804 2858.85 28.6525 2861.7L23.9343 2880.25L21.5885 2889.53C19.8702 2896.29 18.3433 2903.21 19.2646 2910.21L19.3616 2910.89C23.9578 2955.23 205.397 2933.86 240.809 2930.67C255.044 2928.44 270.663 2929.66 283.48 2922.1C299.202 2911.71 301.168 2890.62 298.469 2873.35L298.245 2871.73C297.152 2864 295.552 2855.91 288.237 2851.59C290.7 2835.58 289.746 2819.21 292.676 2803.26C297.1 2780.71 310.482 2761.13 317.314 2739.48C327.279 2728.37 327.615 2711.07 329.699 2696.87C331.278 2683.09 332.569 2669.23 333.101 2655.37C334.548 2637.05 326.614 2621.95 307.389 2619.56C308.281 2616.08 305.839 2613.08 303.41 2610.86C309.142 2590.47 310.724 2562.47 285.859 2555.51C276.441 2532.11 273.703 2506.75 271.196 2481.8C271.495 2481.74 271.791 2481.68 272.089 2481.63C283.483 2486.39 286.575 2466.04 287.642 2455.3L287.878 2452.74C299.603 2328.54 298.524 2203.62 302.927 2079.04L303.358 2070.04C307.218 1987.96 309.515 1905.15 323.682 1824.17C337.942 1733.91 341.669 1642.17 346.543 1550.96C352.283 1559.9 355.37 1570.16 360.016 1579.69C420.296 1757.13 482.147 1934.04 541.742 2111.73C584.936 2240.38 626.203 2369.71 667.592 2498.96C669.704 2505.58 676.358 2506.95 681.228 2504.83C693.625 2509.14 706.634 2511.58 719.727 2512.01C720.515 2513.82 722.135 2515.15 724.504 2514.89C731.507 2514.12 739.564 2516.32 746.567 2517.14C762.59 2518.72 778.145 2521.18 794.314 2521.42C804.331 2534.11 804.96 2551.31 809.579 2566.41C812.238 2574.11 811.82 2591.38 821.002 2593.55C817.711 2598.62 817.28 2604.72 817.813 2611.01C814.958 2611.66 812.061 2612.89 809.375 2614.14C806.759 2615.47 803.303 2615.36 801.5 2618.03C750.22 2627.34 787.695 2724.91 796.609 2757.18C805.357 2783.56 808.097 2811.11 804.104 2838.65C798.002 2847.1 800.045 2859.66 799.111 2869.67C798.62 2878.6 797.718 2887.67 797.799 2896.61C798.796 2933.77 844.572 2927.72 870.398 2932.54C886.525 2934.42 902.725 2935.73 918.924 2936.75C960.008 2939.31 1001.32 2939.5 1042.32 2935.52C1068.79 2934.68 1074.49 2917.38 1074.45 2893.72L1074.49 2892.74C1075.08 2876.67 1072.5 2857.28 1057.27 2848.93C1056.51 2840.44 1052.22 2831.87 1047.83 2824.45C1027.43 2790.09 996.799 2759.97 990.775 2718.73C984.865 2691.73 991.56 2632.3 964.168 2618.23C963.533 2606.07 956.08 2593.68 946.852 2587.11C945.071 2576.98 938.362 2567.67 934.21 2558.36C925.744 2540.6 917.912 2522.55 909.491 2504.77C913.9 2502.9 918.586 2499.46 919.201 2494.58C923.434 2494.63 927.617 2491.89 927.104 2486.72C925.609 2471.74 922.337 2457 919.247 2442.27L918.861 2440.43C863.873 2174.1 750.319 1925.05 683.884 1662.13C692.823 1663.75 701.18 1653.51 706.122 1646.84C722.085 1625.3 731.513 1599.25 735.659 1572.81L743.162 1571.88C768.186 1568.8 793.333 1566.1 818.566 1566.83L824.647 1567.03C831.403 1567.24 838.171 1567.18 844.593 1564.75C849.073 1565.16 853.738 1562.75 854.845 1557.72C873.534 1464.39 827.597 1375.83 794.694 1291.5C786.943 1270.77 781.426 1249.73 776.166 1228.26C775.993 1227.57 774.906 1227.71 774.936 1228.43C775.961 1252.3 781.868 1276.37 787.866 1299.37C807.563 1377.39 848.596 1453.89 838.564 1536.48C807.379 1511.88 770.341 1494.78 731.435 1487.55C729.19 1477.78 726.709 1468.07 724.843 1458.24C726.678 1443.11 727.929 1427.92 729.528 1412.72C734.306 1367.27 741.605 1321.93 751.334 1277.27C766.428 1232.34 779.606 1186.8 784.318 1139.42L785.176 1139.59C795.64 1141.72 807.17 1146.34 816.879 1139.66C823.041 1135.38 825.708 1128.29 828.197 1121.47C835.309 1104.95 836.625 1083.24 816.501 1076.33C824.003 1023.8 819.128 968.97 810.061 916.936C802.801 871.327 786.874 826.392 792.836 779.7C799.455 734.832 811.797 687.839 793.955 643.918C764.633 570.62 690.38 535.843 617.355 524.651L616.172 524.302C607.138 521.623 598.911 518.798 589.499 520.828C567.297 479.548 531.29 496.338 496.129 505.538C493.754 498.538 491.776 491.377 489.915 484.222C488.757 480.578 489.139 472.168 485.097 471ZM281.583 2871.61L281.675 2873.41C282.605 2892.74 281.557 2909.3 257.643 2909.17C241.187 2910.93 224.728 2912.65 208.246 2914.14L202.063 2914.69C153.144 2919.06 103.637 2921.2 54.8109 2914.63L52.7768 2914.36C48.6963 2913.77 41.1401 2913.89 37.9095 2910.87C34.0156 2905.62 38.5236 2895.6 39.4689 2889.51C115.654 2888.62 191.938 2885.81 268.173 2886.78C276.19 2886.82 279.81 2879.95 279.071 2873.7C279.974 2873.09 280.825 2872.38 281.583 2871.61ZM1055.09 2861.92C1058.83 2875.12 1057.91 2887.59 1055.79 2900.81C1054.74 2914.65 1048.17 2915.54 1036.27 2915.86C989.854 2920.15 943.098 2919.25 896.666 2915.66C871.779 2912.97 846.204 2913.07 821.781 2907.55C810.129 2902.38 816.855 2886.11 816.459 2876.13C871.31 2911.55 954.264 2907.05 1014.08 2886.56L1015.04 2886.15C1029.19 2880.19 1047.27 2876.44 1055.09 2861.92ZM964.23 2623.61C970.536 2630.73 970.667 2651.03 970.932 2657.94L970.965 2658.72C971.673 2673.23 971.561 2687.77 972.188 2702.28C971.726 2763.39 1006.94 2793.86 1033.1 2843C1040.25 2854.92 1029.84 2856.61 1021.38 2860.48C966.567 2886.04 901.732 2889.94 844.471 2870.38C815.688 2861.99 821.972 2842.59 824.416 2818.85C826.822 2770.33 801.346 2726.62 793.811 2679.7L793.608 2678.48C791.361 2664.7 787.479 2629.39 809.385 2636.94C814.152 2639.88 818.633 2636.2 819.196 2631.69C819.764 2631.78 820.346 2631.83 820.908 2631.84C823.442 2647.53 826.066 2663.19 828.587 2678.88C826.466 2680.23 824.477 2681.75 822.714 2683.5C820.571 2685.63 822.068 2690.1 825.297 2689.82C826.957 2689.68 828.598 2689.43 830.229 2689.12C831.522 2702.75 853.132 2695.1 846.889 2684.17C877.961 2673.42 912.192 2674.27 943.745 2682.52L943.876 2682.58C946.318 2683.55 963.883 2687.08 958.232 2689.82C955.877 2690.11 961.239 2693.2 962.179 2688.42C962.483 2682.43 948.831 2679.48 944.648 2677C955.197 2661.87 962.406 2642.26 964.23 2623.61ZM168.221 2575.7C197.491 2559.82 233.462 2565.71 265.209 2568.52L266.542 2568.67C274.622 2569.55 285.883 2570.08 289.592 2578.42C294.962 2591.78 286.061 2621.67 283.265 2636.53L282.313 2640.43C279.994 2649.94 277.794 2659.37 276.999 2669.21C276.98 2669.52 277.277 2669.74 277.554 2669.74C288.675 2657.83 293.673 2641.82 298.868 2626.55C301.084 2627.81 303.247 2629.18 305.286 2630.69C313.257 2658.14 315.926 2687.36 309.615 2715.36L309.388 2716.34C301.592 2750.94 277.319 2779.24 275.011 2815.4C273.469 2830.01 273.815 2844.99 269.619 2859.19C267.232 2859.72 265.151 2861.48 264.216 2863.7L250.532 2863.71C184.394 2863.83 118.237 2864.43 52.1412 2867.16C54.2727 2848.53 70.6767 2832.01 82.2314 2819.24C117.686 2782.85 133.021 2730.59 127.18 2680.22C124.107 2655.02 110.073 2615.42 144.403 2606.11C146.911 2626.65 150.3 2647.12 152.174 2667.74C145.696 2670.87 146.096 2679.13 154.011 2678.97C157.563 2690.95 169.476 2686.11 168.189 2674.8C211.76 2658.68 236.758 2653.27 279.206 2677.57C280.394 2677.39 275.943 2672.62 275.381 2671.77C261.966 2657.28 241.365 2650.46 222.036 2650.22C202.876 2650.22 184.858 2657.45 166.784 2663.05C164.068 2643.59 162.239 2624.01 160.085 2604.49L159.618 2600.31C158.49 2590.06 158.901 2581.59 168.221 2575.7ZM868.43 2826.96C862.053 2825.53 856.187 2823.37 849.709 2824.84C826.907 2842 920.075 2846.84 928.008 2845.62C948.202 2845.03 968.405 2842.46 987.84 2836.74L989.195 2836.34C991.109 2835.8 1010.48 2830.4 1006.81 2827.98C980.521 2830.32 954.786 2835.16 928.008 2833.9C914.648 2833.62 901.238 2832.67 888.023 2830.66C881.451 2829.65 874.91 2828.42 868.43 2826.96ZM252.456 2805.69C256.629 2799.43 236.279 2807.75 233.632 2807.82C216.779 2811.99 199.629 2815.15 182.318 2816.46C170.712 2817.34 158.983 2817.53 147.356 2816.95C138.746 2816.66 130.229 2815.38 121.675 2814.5L121.367 2814.49C116.282 2814.31 106.097 2817.47 112.375 2823.53C122.137 2831.12 136.581 2828.81 148.28 2829.92C183.809 2829.8 221.432 2824.07 252.456 2805.69ZM920.42 2760.13C910.177 2758.27 853.797 2757.66 859.418 2775C860.781 2778.29 863.898 2779.38 867.179 2778.87C902.072 2770.36 939.711 2765.91 974.493 2777.64C975.056 2777.84 975.446 2776.91 974.892 2776.66C957.791 2768.08 939.492 2762.07 920.42 2760.13ZM188.613 2743.17C179.408 2742.47 170.148 2742.72 160.939 2743.41L157.168 2743.71C153.284 2744.02 149.314 2744.43 145.603 2745.56L144.865 2745.79C139.808 2747.43 128.411 2756.13 137.062 2760.32C146.351 2763.34 154.206 2759.75 163.166 2757.45C188.144 2751.51 214.401 2753.52 239.147 2759.59L235.662 2760.71C235.447 2760.55 235.169 2760.92 235.375 2761.09C237.876 2763.28 241.311 2762.5 243.084 2759.78C243.393 2759.32 243.197 2758.57 242.706 2758.31C225.933 2749.49 207.437 2744.61 188.613 2743.17ZM966.567 2740.96C938.358 2728.45 905.675 2727.07 875.423 2730.69L873.268 2730.96C863.83 2732.07 851.52 2732.58 846.12 2741.39C844.254 2744.44 846.182 2747.94 849.196 2749.04C858.074 2752.29 868.512 2745.78 877.041 2743.36C902.264 2736.44 929.201 2735.71 954.849 2740.49C954.669 2741.45 958.917 2741.03 959.842 2741.37C961.001 2741.3 968.695 2743.85 966.567 2740.96ZM255.203 2721.42C230.594 2709.43 202.14 2706.57 175.571 2712.76L174.467 2713.08C162.695 2716.39 143.741 2720.3 139.523 2732.79C138.611 2735.6 140.59 2739.4 143.553 2739.97C153.591 2741.9 162.704 2734.55 171.788 2731.02C198.514 2720.95 228.767 2718.55 256.403 2725.95C256.587 2727.04 256.772 2728.12 256.968 2729.21C256.495 2728.9 256.003 2729.6 256.382 2729.98C260.792 2733.08 265.381 2725.26 255.203 2721.42ZM903.155 2700.34C883.243 2699.01 863.164 2701.55 843.941 2706.81L840.326 2707.81C835.072 2709.29 828.266 2711.61 827.502 2717.3C827.204 2719.56 827.768 2721.12 829.603 2722.53C836.295 2727.54 850.85 2717.03 859.171 2715.79C889.378 2706.7 921.803 2706.83 952.402 2713.79L953.444 2714.03L952.706 2719.29C951.981 2721.81 958.706 2715.88 956.151 2713.17C939.998 2704.93 921.15 2701.82 903.155 2700.34ZM236.431 2690.93C220.449 2688.04 203.964 2687.49 187.806 2688.94L185.897 2689.12C176.248 2689.97 144.984 2691.22 152.379 2707.57C153.62 2710.3 157.219 2710.65 159.547 2709.47C167.36 2705.5 175.9 2704.07 184.522 2702.76C214.966 2698.51 246.069 2700.25 275.791 2708.47C275.145 2709.49 276.478 2710.69 277.739 2710.93C280.876 2711.51 280.876 2707.76 279.533 2705.77C277.932 2703.41 274.745 2702.55 272.284 2701.51C260.838 2696.51 248.701 2693.13 236.431 2690.93ZM841.712 2599.96L843.532 2599.53C874.029 2592.34 941.644 2579.44 948.646 2621.55C951.131 2640.09 942.933 2658.18 943.539 2676.55C911.915 2663.66 876.945 2663.79 844.089 2672.31C841.179 2653.25 838.4 2634.17 835.427 2615.12L834.946 2612.84C833.623 2606.42 833.173 2601.39 841.712 2599.96ZM909.635 2607.63C902.989 2601.92 891.906 2602 885.388 2608.23C879.426 2609.49 875.221 2615.83 875.125 2621.27C866.061 2637.24 876.991 2659.3 894.296 2663.29C933.373 2671.54 950.841 2617.74 909.635 2607.63ZM232.618 2582.15C199.922 2576.3 188.045 2617.87 214.88 2634.73C252.787 2653.79 278.045 2593.87 232.618 2582.15ZM893.457 2489.81C892.975 2492.99 894.535 2495.25 896.399 2497.39C903.102 2524.93 913.191 2550.56 923.138 2576.97C890.778 2571.59 860.203 2576.28 831.571 2585.09C831.229 2577.03 827.565 2568.68 825.021 2561.09C820.066 2546.66 814.076 2532.61 807.167 2519.04L806.298 2517.34C803.817 2512.51 801.428 2507.47 798.497 2502.84C830.168 2498.51 861.84 2494.6 893.457 2489.81ZM255.603 2483.94L256.447 2487.77C260.082 2504.4 263.532 2521.18 268.942 2537.33L269.016 2537.66C269.844 2541.74 271.706 2560.61 272.879 2547.29C273.781 2549.3 274.745 2551.28 275.77 2553.23L267.928 2552.3C238.679 2548.85 208.164 2546.11 179.478 2553.47C182.454 2530.36 178.072 2508.27 171.676 2486.41C199.714 2485.77 227.504 2485.97 255.603 2483.94ZM786.574 2512.67C787.599 2513.64 788.602 2514.62 789.557 2515.65C788.264 2515.32 786.972 2515 785.774 2514.72C785.823 2513.96 786.358 2513.39 786.574 2512.67ZM154.728 2491.47L155.641 2493.62C155.168 2493.34 154.645 2493.07 154.082 2492.83C154.339 2492.41 154.554 2491.97 154.728 2491.47ZM910.782 2486.75C911.113 2487.99 911.367 2489.34 911.962 2490.46C911.491 2490.55 911.009 2490.64 910.526 2490.74C909.943 2489.56 909.326 2488.41 908.661 2487.27C909.368 2487.11 910.076 2486.94 910.782 2486.75ZM666.906 1123.56C669.776 1124.95 672.77 1125.3 676.727 1125.47C708.882 1126.81 740.933 1130.54 772.507 1136.91C770.764 1162.51 762.993 1187.32 755.597 1211.73L754.064 1217.08C729.076 1304.54 707.265 1395.94 711.658 1487.42C711.412 1487.51 711.176 1487.63 710.95 1487.75C711.349 1488.87 711.635 1490.02 712.037 1491.13L712.294 1491.79L713.794 1495.52C714.623 1497.6 715.428 1499.68 716.128 1501.81C717.355 1502.26 718.864 1502.58 720.301 1502.79C727.596 1551.22 720.66 1605.53 687.789 1643.4C699.507 1619.76 703.595 1592.9 703.079 1566.63L702.986 1562.61C702.852 1557.65 702.555 1552.7 701.047 1547.99C700.985 1547.74 700.657 1547.79 700.574 1547.99C693.615 1569.54 693.161 1592.94 686.324 1614.65L685.801 1616.31C680.393 1633.32 671.363 1655.22 655.679 1664.01C652.791 1664.87 648.35 1663.85 646.849 1667.19L646.749 1667.43L646.657 1667.4C653.658 1644.41 658.166 1620.63 659.71 1596.63L659.811 1595C660.303 1586.62 661.389 1577.65 659.307 1569.47C655.34 1576.95 656.326 1589.16 654.479 1598.21L654.406 1598.72C652.948 1608.5 638.908 1683.22 629.688 1673.23C627.783 1670.48 628.278 1665.16 628.22 1661.88L628.212 1661.56C628.068 1656.82 628.12 1652.08 628.283 1647.35C629.279 1619.45 633.605 1590.81 625.126 1563.63C623.71 1559.05 616.021 1558.18 615.088 1563.63C611.356 1585.4 607.789 1607.19 604.221 1628.98C601.62 1642.29 601.729 1657.31 593.825 1668.79C593.733 1643.72 595.119 1618.73 596.318 1593.7L596.638 1592.66C597.586 1589.5 598.52 1585.39 596.347 1582.71C595.476 1577 587.15 1577.65 586.443 1583.63C586.289 1584.88 586.177 1586.15 586.054 1587.4C583.295 1590.87 580.732 1594.41 577.472 1597.4C555.703 1552.83 626.929 1475.87 636.762 1425.55C665.722 1327.55 649.072 1224.8 640.649 1125C649.359 1123.97 658.142 1123.69 666.906 1123.56ZM252.435 559.542C237.21 590.184 226.035 622.613 218.294 655.987C215.909 666.291 229.692 672.615 235.26 663.588L235.426 663.309C242.274 651.854 252.478 641.765 265.395 637.82C274.195 674.816 269.907 713.913 265.334 751.27C257.227 803.315 250.775 855.583 249.809 908.324L249.762 911.15C246.937 1091.26 220.54 1270.56 191.627 1446.91C145.407 1454.35 103.092 1475.35 60.4868 1493.81C53.0844 1496.71 45.518 1499.24 37.766 1500.98C59.1723 1301.05 140.583 1113.56 165.739 914.36C172.387 862.553 172.7 809.944 163.515 758.437C163.36 757.45 161.967 757.783 161.905 758.655C160.896 779.813 157.288 800.694 155.149 821.737C153.693 809.719 150.33 797.545 147.613 786.026C144.291 774.756 143.064 756.664 133.33 749.317L132.716 747.188C132.46 746.274 131.106 746.658 131.321 747.572C131.423 748.008 131.527 748.434 131.619 748.87C125.367 750.537 131.207 757.973 132.757 761.532C142.791 788.532 145.777 817.758 152.627 845.586C142.715 932.461 124.865 1018.23 102.88 1102.67C82.6815 1097.33 62.4151 1092.18 42.1653 1086.96C87.334 939.281 60.9224 774.476 128.596 633.469C153.95 586.148 216.39 592.576 252.435 559.542ZM595.608 532.545C605.082 532.036 614.976 537.199 624.07 538.975C636.127 541.322 648.123 543.182 659.913 546.787C720.265 563.4 778.49 608.768 789.424 674.134C796.939 719.017 778.33 762.748 778.985 807.506C780.948 851.85 795.51 894.469 801.183 938.365C808.009 983.253 810.358 1030.24 804.504 1075.34C750.366 1059.92 693.826 1058.95 638.31 1066.92C642.94 998.552 636.865 929.849 633.503 861.531C631.083 817.655 626.941 773.582 628.406 729.623C628.438 728.646 626.859 728.407 626.707 729.384C610.058 819.166 619.823 910.308 621.506 1000.86C622.573 1023.73 619.753 1046.83 620.891 1069.58C595.652 1075.03 596.565 1104.59 604.283 1124.07C605.651 1128.76 610.294 1127.94 614.053 1127.37C618.126 1131.67 627.842 1126.06 633.38 1126.06C637.714 1238.45 664.048 1358.5 610.086 1463.55C587.525 1463.67 565.808 1455.86 543.882 1451.42L542.685 1451.18L542.655 1451.17C539.431 1446.96 537.855 1440.19 537.425 1435.23C534.36 1348.68 543.951 1261.92 538.34 1175.36C531.468 1079.28 510.124 983.785 519.995 887.052C526.823 800.598 545.56 715.71 554.592 629.514L555.05 625.054C555.612 619.74 555.825 613.868 558.443 609.816C573.68 623.758 586.465 640.336 595.619 658.988C600.687 667.998 614.264 663.989 614.473 653.816C616.425 635.654 616.714 617.422 614.736 599.255L614.556 597.652C612.105 574.912 605.262 553.206 595.608 532.545ZM29.165 1156.31C48.7884 1157.35 68.4376 1159.54 88.0959 1159.28L86.1165 1166.74C62.3189 1256.22 36.9788 1345.54 22.0396 1437.1L21.4968 1428.51C20.9563 1419.93 20.4394 1411.34 20.1018 1402.73C15.8634 1320.45 22.3358 1238.27 29.165 1156.31ZM540.02 585.229C539.938 588.948 539.753 592.656 539.465 596.354C530.396 610.017 531.202 628.179 529.172 643.897C517.789 728.78 501.027 813.315 495.38 899.081C490.126 967.691 498.706 1036.06 507.476 1103.98C518.292 1181.77 517.158 1260.36 514.645 1338.67C473.087 1300.89 414.02 1294.26 361.584 1282.53L359.09 1282.02C318.772 1273.72 278.537 1261.7 244.283 1238.09C268.918 1061.11 263.121 881.857 288.309 705.036C289.085 691.112 289.244 677.109 288.094 663.196C289.2 648.134 289.53 632.989 289.559 617.887C300.597 662.501 337.581 705.604 386.038 704.196C437.596 701.156 481.358 658.747 514.973 622.395C524.086 611.551 533.15 598.889 540.02 585.229ZM86.5795 1156.39L88.9068 1156.28L88.7634 1156.79C88.2849 1156.69 87.7973 1156.6 87.3098 1156.52L86.5795 1156.39ZM22.6239 1095.96C22.992 1095.85 23.6185 1095.85 24.3157 1095.88C25.3204 1098.2 27.3493 1100.13 29.7074 1100.76L49.3793 1106.1C65.7753 1110.55 82.1802 1114.97 98.6048 1119.28C95.8479 1129.96 93.0479 1140.64 90.2192 1151.3C67.8173 1144.04 43.0133 1145.69 20.1726 1141.01C20.4535 1128.68 21.123 1116.3 21.3322 1103.95C21.3834 1101.93 20.9733 1098.69 21.9985 1096.89C22.6434 1095.73 21.9985 1096.16 22.6239 1095.96ZM775.141 1137.45L775.757 1137.58C775.552 1138.14 775.366 1138.7 775.192 1139.28C775.182 1138.66 775.173 1138.06 775.141 1137.45ZM629.298 1078.14C671.504 1071.95 714.427 1068.3 756.995 1072.51C776.249 1075.13 795.795 1077.93 814.665 1081.51C821.227 1091.66 813.967 1116.35 805.797 1124.16C803.347 1125.1 799.133 1123.28 796.785 1122.75C779.168 1118.74 761.38 1115.52 743.501 1113C742.969 1113.67 742.19 1114.11 741.226 1114.01L737.119 1113.63C712.461 1111.37 687.586 1109.71 662.875 1111.13L662.692 1111.27C646.02 1112.5 629.406 1115.14 612.803 1117.06C606.248 1099.79 607.378 1079.99 629.298 1078.14ZM322.203 515.115C320.573 520.679 318.613 526.085 316.175 531.34C313.631 530.631 310.121 531.2 308.25 532.815L307.455 532.67C305.266 532.252 302.638 531.611 301.954 531.537C271.798 527.333 274.096 567.98 273.986 588.408C273.802 598.65 273.597 608.902 273.289 619.144C264.658 616.182 253.119 621.506 245.576 626.217C251.482 606.409 258.423 586.922 266.163 567.779L267.629 564.049C273.728 548.604 280.479 532.965 293.435 522.21C303.286 519.614 312.829 519.142 322.203 515.115ZM540.849 504.917C568.879 494.844 579.982 517.735 587.756 540.564C596.922 565.847 599.423 593.685 597.896 620.889L596.952 619.631C586.64 605.779 571.77 582.915 552.968 586.59C553.153 576.08 552.776 564.535 550.775 553.621C551.942 546.578 552.241 539.463 551.43 532.348C551.001 523.426 541.356 524.78 535.006 523.519C529.511 519.831 522.857 518.346 516.172 520.942C511.128 520.267 506.084 519.623 501.04 518.979C500.265 517.265 499.64 515.543 498.989 513.786C512.949 510.878 526.906 507.882 540.849 504.917Z" fill="black"/>
<g clip-path="url(#clip0_1_38)">
<path fill-rule="evenodd" clip-rule="evenodd" d="M213.158 128.845C213.494 116.887 230.887 111.922 235.912 123.765C236.224 124.082 236.563 124.387 236.881 124.66C235.308 123.311 238.597 125.543 239.132 125.819C239.59 126.055 240.058 126.268 240.525 126.488C243.757 96.1937 254.729 63.5357 283.081 48.3297C322.625 29.1537 368.318 25.4107 411.701 27.3157C433.678 28.6197 459.056 32.1337 478.581 21.0157C484.665 17.5517 489.542 12.0987 496.417 9.95772C518.12 4.08672 527.964 26.3727 525.008 44.6997C534.265 44.7727 543.448 49.8977 547.443 58.3357C549.789 63.3297 549.748 68.7187 551.771 73.7307C557.978 86.4407 566.859 95.5767 561.838 110.987C570.669 121.036 565.634 136.249 558.508 145.87C554.989 150.874 550.798 155.678 548.22 161.279C545.718 166.642 549.495 173.002 551.597 178.086C567.137 214.935 566.249 255.516 557.887 293.952C574.667 301.233 579.703 323.993 568.761 338.324C564.996 343.39 560.403 345.27 555.194 348.387C548.602 352.015 553.986 366.547 551.875 373.565C549.007 390.698 533.407 401.249 517.982 390.123C508.194 388.642 500.299 417.121 493.191 424.269C488.812 430.029 483.95 435.201 478.664 439.974C462.914 480.499 382.208 501.049 342.306 498.703C300.521 494.328 272.332 458.842 248.86 427.348C236.807 410.567 228.968 391.785 226.117 371.3C223.253 350.712 224.506 330.087 226.442 309.474C230.509 265.678 236.925 202.582 241.068 158.313C226.096 157.08 212.704 144.333 213.158 128.845Z" fill="white"/>
<path fill-rule="evenodd" clip-rule="evenodd" d="M539.545 102.513C539.559 102.575 539.538 102.622 539.524 102.688C539.521 102.669 539.518 102.659 539.513 102.636C539.525 102.586 539.534 102.553 539.545 102.513Z" fill="#4F66AF"/>
<path fill-rule="evenodd" clip-rule="evenodd" d="M539.549 103.15C539.604 103.092 539.682 103.049 539.76 102.991C539.762 102.993 539.763 102.995 539.764 102.997C539.691 103.045 539.621 103.1 539.549 103.15Z" fill="#4F66AF"/>
<path fill-rule="evenodd" clip-rule="evenodd" d="M215.539 134.504C210.621 130.418 202.874 134.18 204.54 140.907C206.353 148.233 214.205 153.239 220.687 156.249C227.359 159.346 233.858 159.943 241.137 159.605L241.227 159.585C239.206 167.688 238.06 176.111 236.514 184.263C234.552 194.605 232.622 204.952 230.721 215.304C228.882 225.31 226.557 235.329 225.144 245.385C223.719 255.536 222.351 265.694 220.951 275.848C218.615 292.807 216.729 309.844 214.74 326.851L213.792 334.902C211.801 351.941 210.198 369.002 213.972 385.959C217.509 401.851 225.477 416.675 234.719 429.941C243.77 442.931 253.881 455.421 264.98 466.72C286.389 488.511 312.789 505.964 343.745 509.201C357.074 510.595 371.31 509.044 383.841 504.199L384.673 503.874C397.358 498.865 412.891 490.29 416.193 476.219C418.22 467.587 409.325 460.848 401.526 464.944C397.912 466.842 395.195 469.011 392.229 471.73L391.703 472.216C389.279 474.467 388.346 475.159 385.549 476.92C379.812 480.529 375.512 482.237 368.996 483.877C356.982 486.899 344.016 486.421 331.82 482.847C305.926 475.259 285.838 455.459 268.629 435.606C259.285 424.825 250.416 413.516 243.576 400.951C236.399 387.768 233.086 373.927 233.285 358.927C233.51 342.002 235.849 325.011 237.384 308.166C238.948 290.993 240.394 273.826 241.668 256.629C242.861 240.502 242.977 224.302 243.394 208.125L243.476 205.092C243.721 196.504 243.891 187.913 244.086 179.323C244.279 170.758 244.957 162.084 244.075 153.555C244.012 152.934 243.175 152.777 242.971 153.405C242.451 155.003 241.996 156.626 241.566 158.258C241.5 158.208 241.426 158.163 241.336 158.132C235.632 156.172 230.379 152.259 226.099 148.039C222.015 144.012 219.882 138.113 215.539 134.504ZM527.616 14.5061C524.033 -0.209871 507.909 -3.49687 495.986 3.59013C490.251 6.99813 485.659 11.9131 480.302 15.8191C474.976 19.7031 469.09 22.8221 462.879 25.0251C450.54 29.4011 437.524 30.9921 424.483 31.0491C392.743 31.1881 361.652 22.2681 329.865 23.2631C305.269 24.0331 279.163 31.3021 261.322 49.0821C251.711 58.6601 245.518 70.9741 242.196 84.0471C240.643 90.157 239.486 96.4151 238.573 102.659L238.35 104.219C237.839 107.868 237.019 111.731 236.943 115.419C236.874 118.731 237.712 122.197 238.166 125.475C239.123 132.385 249.826 131.598 251.364 125.475C254.866 111.534 253.4 97.1461 257.68 83.2531C261.475 70.9331 268.83 60.1611 279.487 52.7941C324.446 21.7141 382.101 47.7411 431.637 45.3231C443.744 44.7321 456.029 42.8611 467.449 38.6921C473.338 36.5421 479.136 33.9201 484.475 30.6221C489.367 27.6024 493.605 23.8084 498.133 20.3171L500.131 18.7987C503.235 16.4632 508.52 12.8116 511.652 15.9011C513.015 17.246 513.097 20.2867 513.072 22.6087L513.057 23.6581C512.915 33.5161 510.906 43.3561 514.595 52.8801C516.278 57.2242 520.955 59.9632 525.403 57.503L525.633 57.3711C535.042 51.7737 547.404 63.0212 540.176 72.3297L539.951 72.6111C535.884 77.5533 538.052 86.2564 545.331 86.2346L545.593 86.2301C558.561 85.8252 564.314 102.032 553.137 109.113L552.793 109.325C543.718 114.756 551.678 127.813 560.979 123.33C560.191 123.71 561.561 123.705 562.345 124.757C563.098 125.767 563.154 126.641 562.975 127.917C562.432 131.783 559.032 135.041 556.278 137.487C550.022 143.044 542.267 146.881 534.276 149.217C502.266 158.575 469.426 147.128 438.238 140.215C405.723 133.008 368.999 130.105 340.643 150.556C340.306 150.798 340.601 151.339 340.974 151.123C361.324 139.305 386.248 140.354 408.493 145.199C437.663 151.553 466.578 163.38 496.453 166.496C488.066 181.302 484.556 198.789 486.796 215.724C488.338 227.382 492.978 237.494 498.457 247.741L499.503 249.694C504.389 258.892 508.173 267.581 508.234 278.237C508.293 288.824 524.032 291.056 526.7 280.737C532.757 257.302 510.691 238.843 501.688 219.518C493.993 202.998 493.756 183.737 499.983 166.822C507.009 167.387 514.09 167.446 521.242 166.808C527.385 166.259 533.705 165.152 539.865 163.4L542.329 173.76C545.594 187.559 548.619 201.349 549.536 215.682C550.211 226.214 550.175 236.798 549.148 247.304C548.26 256.378 546.386 265.129 544.479 273.988C542.843 276.146 542.007 279.449 542.467 282.08C531.847 285.138 523.494 293.518 520.442 304.617C520.256 305.293 521.202 305.673 521.556 305.087C528.797 293.073 547.443 288.652 559.238 296.589C570.502 304.167 574.945 319.467 568.569 331.579C565.215 337.948 560.243 342.423 553.831 345.505L552.542 346.11C549.182 347.7 546.098 349.433 543.937 352.626C541.134 356.768 541.039 361.147 541.304 365.88L541.419 367.798C541.596 370.97 541.636 374.236 540.691 377.288L540.476 377.966C540.227 378.728 539.965 379.399 539.51 380.126C539.374 380.342 538.098 381.594 537.682 382.047L537.158 382.205L536.572 382.229C535.922 382.239 535.067 381.957 535.348 382.153L535.271 382.109C535.025 381.955 534.798 381.793 534.607 381.649L534.244 381.365C533.395 380.138 532.331 379.124 531.026 378.351L529.779 377.796C526.54 374.376 520.99 376.173 518.668 379.58C516.997 382.03 516.098 384.521 516.024 386.978C515.763 386.559 515.183 386.33 514.814 386.799L512.612 389.605C504.189 400.367 495.91 411.197 486.339 421.008C481.066 426.414 475.394 431.494 469.465 436.173C464.403 440.168 454.801 444.012 454.654 451.289C454.608 453.651 456.285 455.324 458.337 456.126C465.015 458.735 473.268 449.861 478.092 445.543L478.486 445.194C484.39 440.023 489.778 434.347 494.75 428.277C504.407 416.486 512.482 402.915 516.041 387.986C516.208 390.591 517.326 393.144 519.502 395.553C522.399 398.759 526.364 401.007 530.599 401.933C540.194 404.03 549.562 400.577 555.271 392.582C560.096 385.823 561.517 376.898 560.894 368.732L560.818 367.752C560.73 366.443 560.619 364.04 560.28 363.017L563.301 361.358C567.005 359.387 570.438 356.803 573.519 353.963C585.902 342.547 592.115 323.994 586.454 307.759C582.913 297.603 575.472 288.766 565.944 284.173C567.536 280.493 568.069 276.122 568.67 272.255L568.771 271.615C569.79 265.271 570.643 258.847 570.968 252.427C571.576 240.437 570.837 228.335 568.953 216.484C565.893 197.235 559.558 176.821 547.946 160.673C556.805 157.155 564.959 152.062 571.253 144.99C577.83 137.6 582.023 127.02 576.937 117.635C575.641 115.243 573.952 113.232 572.011 111.635C575.377 105.279 576.466 97.7671 574.389 90.5871C571.907 82.0031 565.168 75.3081 557.027 72.1821C559.004 64.0491 557.388 55.3011 551.347 48.5231C545.355 41.7991 536.05 39.3501 527.438 40.8871C526.971 32.2371 529.694 23.0371 527.616 14.5061ZM551.771 318.206C543.875 314.342 534.517 314.956 526.63 318.618L526.095 318.872C517.484 323.047 506.08 332.803 508.817 343.179C510.419 349.247 517.161 351.319 522.389 348.7C526.756 346.511 527.752 342.598 529.943 338.667C531.492 335.887 533.407 333.714 535.656 331.479C540.397 326.77 545.722 323.272 551.771 320.473C552.643 320.069 552.613 318.619 551.771 318.206ZM352.816 108.477C353.556 108.139 353.019 106.98 352.274 107.192C332.433 112.858 313.934 125.576 302.88 143.229C302.206 144.306 302.103 146.079 302.88 147.145L303.238 147.628C303.745 148.29 304.245 148.779 305.198 148.927C306.99 149.205 308.547 148.738 309.579 147.145C320.469 130.319 334.421 116.891 352.816 108.477ZM219.991 111.808C218.31 108.961 213.853 109.534 212.966 112.726L212.838 113.004C212.358 114.092 212.576 114.315 213.47 113.699C211.258 115.521 210.257 118.235 210.933 121.153C214.585 136.913 232.436 148.167 247.998 146.618C249.356 146.483 249.541 144.814 248.31 144.316C242.323 141.892 237.009 137.955 232.736 133.124C228.583 128.428 226.836 123.055 224.602 117.384C223.764 115.255 222.46 113.722 220.623 112.885C220.38 112.549 220.168 112.191 219.991 111.808ZM308.488 101.681L308.381 101.687C300.385 102.72 293.468 106.666 287.853 112.448C282.445 118.016 275.62 127.204 276.205 135.375C276.592 140.792 284.294 143.889 287.168 138.345C288.883 135.037 289.272 131.411 290.473 127.913C291.575 124.707 293.097 121.663 294.919 118.808C298.67 112.926 303.828 107.943 309.11 103.447C309.728 102.921 309.297 101.683 308.488 101.681ZM513.573 99.28C515.346 97.592 513.502 94.714 511.247 95.284C499.354 98.295 487.576 101.957 475.211 102.321C469.035 102.502 462.894 102.015 456.776 101.216L453.679 100.805C448.908 100.182 444.055 99.6931 439.339 100.673C436.195 101.326 435.581 105.376 437.54 107.489C446.791 117.468 464.635 116.514 476.904 114.832C490.227 113.004 503.67 108.714 513.573 99.28ZM298.808 68.1757C299.622 67.0467 298.252 65.2647 296.956 65.7657C285.137 70.3337 272.75 82.2267 269.494 94.6697C268.634 97.9567 272.779 100.439 275.213 97.9987C279.749 93.4517 282.951 88.0807 286.785 82.9697C290.606 77.8747 295.077 73.3497 298.808 68.1757ZM492.461 73.7327C493.409 72.7857 492.455 70.8997 491.093 71.3817C483.398 74.1067 475.645 76.4647 467.561 77.7017C459.281 78.9677 450.923 78.0057 442.6 78.5187C439.233 78.7257 436.94 83.9637 440.683 85.5937C457.315 92.8347 479.905 86.2687 492.461 73.7327ZM471.214 57.4911C472.536 56.5131 471.784 53.8291 469.985 54.5781C462.657 57.6291 455.246 58.3791 447.382 58.0651C444.477 57.9481 443.866 62.5131 446.697 63.1291C455.39 65.0201 464.11 62.7431 471.214 57.4911Z" fill="black"/>
<path fill-rule="evenodd" clip-rule="evenodd" d="M324.976 374.926C331.698 372.183 337.696 367.609 342.081 361.765C343.606 359.734 344.001 357.589 343.681 355.627C343.322 353.421 342.017 351.421 340.237 350.08C338.451 348.735 336.218 348.071 334.058 348.409C332.182 348.703 330.314 349.731 328.836 351.861L328.527 352.287C325.92 355.814 322.523 358.708 318.652 360.573C314.921 362.371 310.749 363.21 306.431 362.722C298.207 361.793 292.539 357.346 286.514 351.306C285.767 350.543 285.02 349.757 284.269 348.958C283.795 348.234 283.137 347.768 282.406 347.524C281.595 347.253 280.677 347.268 279.837 347.561C279.026 347.844 278.301 348.38 277.815 349.094C277.353 349.772 277.091 350.61 277.176 351.573C277.728 357.833 281 363.419 285.648 367.805C290.811 372.676 297.654 376.046 304.097 377.228C311.195 378.53 318.427 377.597 324.976 374.926ZM300.748 278.366C293.197 282.956 281.691 293.66 289.815 305.039C299.377 315.072 313.144 303.568 319.929 298.365C326.219 294.333 333.287 304.704 327.451 309.412C278.427 345.707 258.532 279.567 296.929 272.97C301.157 272.243 302.727 276.946 300.748 278.366ZM388.599 236.146C387.765 225.789 371.992 223.438 370.423 233.686C369.018 242.866 370.672 251.299 374.807 259.564C378.758 267.46 388.689 263.776 389.44 256.586C390.447 246.948 389.118 242.588 388.599 236.146ZM268.536 231.561C266.337 228.681 263.162 226.715 259.358 227.826C247.473 231.299 250.976 248.172 255.15 256.385C257.418 260.845 264.749 261.976 268.062 258.049C273.462 251.645 276.048 238.856 269.183 232.548C268.997 232.222 268.79 231.893 268.536 231.561ZM374.975 190.83L373.097 190.501C367.29 189.497 360.068 188.532 355.96 193.201C353.781 195.677 353.031 200.279 355.96 202.649C361.112 206.819 366.808 205.203 372.982 205.556C378.07 205.848 382.96 206.69 387.861 208.091C398.613 211.164 407.374 216.774 416.557 222.934C417.762 223.742 418.992 222.201 418.417 221.074C413.116 210.691 402.843 202.162 392.553 196.963C387.061 194.188 381.051 191.886 374.975 190.83ZM279.37 186.179L277.933 186.473C262.296 189.741 241.979 196.271 234.574 211.63C234.292 213.802 234.59 214.267 234.833 214.572L234.913 214.673C235.113 214.932 235.273 215.29 236.214 215.586C236.475 215.524 236.739 215.458 237.006 215.388C240.4 214.498 243.085 213.273 245.685 212.001L248.504 210.613C251.775 209.009 255.074 207.464 258.571 206.323C266.033 203.889 273.709 202.175 281.503 201.259C283.192 201.061 284.819 200.491 286.102 199.513C287.321 198.586 288.251 197.302 288.676 195.595C289.225 193.386 289.067 191.713 287.882 189.72C286.991 188.224 285.716 187.186 284.251 186.591C282.759 185.983 281.059 185.84 279.37 186.179Z" fill="black"/>
<path fill-rule="evenodd" clip-rule="evenodd" d="M214.251 283.458C226.392 296.003 246.66 299.603 262.813 292.875C304.289 275.546 283.988 221.496 252.001 206.981C248.005 205.985 242.668 203.622 237.801 203.086C237.361 202.87 236.403 203.495 235.242 202.904C199.971 206.842 191.939 261.594 214.251 283.458ZM348.029 286.669C361.646 304.73 386.962 310.302 407.646 301.906C448.508 285.814 434.015 237.885 406.058 219.095C347.001 196.904 322.614 253.368 348.029 286.669ZM436.609 246.651C436.647 246.633 436.685 246.624 436.724 246.606C436.508 246.511 436.292 246.416 436.077 246.319C436.147 246.502 436.223 246.683 436.291 246.866C436.397 246.793 436.49 246.708 436.609 246.651ZM186.139 227.128C189.473 227.135 194.289 227.683 197.049 229.996C203.855 207.043 228.977 185.8 250.825 201.29C268.03 206.823 280.797 219.094 288.053 235.408C301.136 227.626 321.708 230.949 333.053 241.24C340.483 216.689 358.769 208.092 380.534 206.823C404.29 202.932 427.968 226.003 435.356 244.511C441.499 243.812 450.678 241.857 456.457 245.648C493.964 235.812 559.539 230.389 567.164 235.854C572.598 237.939 575.58 250.765 567.99 251.457C561.376 250.518 568.762 242.059 562.095 241.136C526.572 238.934 492.087 246.088 456.94 249.09C453.802 253.311 443.663 254.723 438.254 253.027C446.773 284.423 428.383 305.783 400.828 312.181C358.161 321.982 321.04 283.814 332.197 244.114C319.272 237.684 304.405 237.96 290.325 241.347C313.853 327.937 174.396 324.052 196.177 232.963C181.682 240.173 178.534 228.583 186.139 227.128Z" fill="black"/>
</g>
<defs>
<clipPath id="clip0_1_38">
<rect width="473" height="567" fill="white" transform="matrix(-1 0 0 1 655.563 0)"/>
</clipPath>
</defs>
</svg>
